<svg viewBox="0 0 692.28 330.66" xmlns="http://www.w3.org/2000/svg" xmlns:xlink="http://www.w3.org/1999/xlink"><defs><linearGradient id="a" y1=".5" y2=".5"><stop stop-color="gray" stop-opacity=".251" offset="0"/><stop stop-color="gray" stop-opacity=".122" offset=".54"/><stop stop-color="gray" stop-opacity=".102" offset="1"/></linearGradient><linearGradient id="b" x1="-8.171" x2="-8.171" y1="1" xlink:href="#a"/></defs><g data-name="Group 7"><path d="M687.004 274.21a49.734 49.734 0 0 1-13.678 16.414 68.886 68.886 0 0 1-2.474 1.885q-1.7 1.189-3.473 2.337c-9.212 5.846-20 9.842-30.532 12.756q-4.306 1.189-8.641 2.236-3.657.886-7.321 1.653c-.928.2-1.855.392-2.783.595s-1.992.4-2.974.595l-1.409.268c-27.249 5.025-54.855 5.983-82.664 4.722l-1.32-.065-2.111-.107q-8.469-.44-16.955-1.124l-2.141-.172-.946-.077q-4.758-.4-9.515-.874-6.268-.595-12.554-1.314l-.541-.059-.44-.054c-14.957-1.683-29.949-3.7-44.959-5.78l-2.123-.3-3.812-.529-3.211-.446-.952-.131q-7.6-1.064-15.2-2.105l-.821-.113c-9.515-1.3-19.084-2.557-28.623-3.7l-1.243-.149q-5.858-.7-11.71-1.326l-2.974-.315-3.955-.4c-10.96-1.088-21.915-1.957-32.845-2.5q-7.886-.392-15.807-.595-6.542-.149-13.083-.172-8.873-.042-17.782.1h-1.344c-8.367.137-16.753.375-25.144.66l-1.511.048h-.5c-17.841.63-35.682 1.469-53.476 2.07l-4.347.143h-.63q-9.277.3-18.537.458h-3.675l-2.759.036q-4.3.042-8.582.048h-3.5c-10.479-.03-20.916-.262-31.287-.8l-1.154-.065a395.993 395.993 0 0 1-59.655-7.422q-3.039-.636-6.066-1.332a278.561 278.561 0 0 1-39.73-12.078c-6.09-2.379-12.215-5.126-16.848-9.777-11.752-11.894-7.338-35.189 7.948-41.962 11.959-5.3 25.971-.987 38.834-3.378a19.84 19.84 0 0 0 2.337-.595 32.48 32.48 0 0 0 4.758-1.963 44.658 44.658 0 0 0 1.576-.833 40.146 40.146 0 0 0 3.521-2.153 54.046 54.046 0 0 0 5.352-4.062q1.13-.963 2.2-2a42.085 42.085 0 0 0 6.494-7.773 27.467 27.467 0 0 0 1.784-3.354 17.708 17.708 0 0 0 .737-1.855 17.28 17.28 0 0 0 .708-2.748c.749-4.413-.464-8.718-4.686-12.358a12.46 12.46 0 0 0-1.189-.9 18.173 18.173 0 0 0-2.581-1.493 28.752 28.752 0 0 0-1.118-.5c-5.436-2.29-12.447-3.17-18.358-4.758a32.414 32.414 0 0 1-5.254-1.818 80.944 80.944 0 0 1-3.2-1.57l-.28-.155a71.6 71.6 0 0 1-23.193-19.03 62 62 0 0 1-4.318-6.268 48.24 48.24 0 0 1-1.154-2c-10.449-18.852-11.525-43.009-.654-61.546a58.234 58.234 0 0 1 4.4-6.458q.785-1.017 1.624-2C33.323 61.614 48.19 53.341 63.201 47.216c20.149-8.219 41.243-13.411 62.741-16.83q6.542-1.041 13.083-1.867c18.257-2.331 36.729-3.568 55.069-4.508q25.733-1.3 51.692-1.683 8.8-.119 17.609-.1 19.857 0 39.714.767 6.542.25 13.083.595 16.777.868 33.488 2.379 8.028.726 16.021 1.6c40.582 4.436 80.576 11.959 119.19 23.657q6.571 1.986 13.083 4.163a505.262 505.262 0 0 1 47.808 18.477q2.212.993 4.413 2 14.624 6.708 28.831 14.457a320.643 320.643 0 0 1 36.039 22.6q6.732 4.936 13.083 10.3a188.178 188.178 0 0 1 20.88 20.6q.856.993 1.695 2 4.353 5.227 8.266 10.829c12.727 18.293 21.267 39.215 27.57 60.588 5.565 18.647 9.264 39.587.445 56.97Z" fill="#6c63ff" opacity=".1" data-name="Path 5"/><path d="M679.005 210.413H628.2v-64.626h22.6q-.839-1.005-1.695-2h-20.88v-20.6q-6.34-5.352-13.083-10.3v30.925H498.013V75.826h52.221q-2.206-1.005-4.413-2h-47.808V55.351q-6.542-2.159-13.083-4.163v22.6H317.771l-.4-.381 48.355-45.9q-7.993-.88-16.021-1.6l-33.488 31.781V23.552q-6.542-.345-13.083-.595V59.88l-39.713-37.69q-8.808 0-17.609.1l53.856 51.115-.4.381H139.039V28.547q-6.542.827-13.083 1.867v43.413H22.977q-.839.981-1.624 2h104.59v67.963H17.583c.369.672.755 1.344 1.154 2h107.207v64.626H73.211q-1.07 1.035-2.2 2h54.933v66.131q6.542.934 13.083 1.951v-68.086h164.1v82.86q6.542 0 13.083.172v-83.032h168.708V313.85l.541.059q6.28.7 12.554 1.314V212.412h117.091v100.243c1-.184 2-.381 2.974-.595s1.855-.375 2.783-.595q3.663-.779 7.321-1.653v-97.4h51.216Zm-375.882 0H139.039v-64.626h164.084Zm0-66.607H139.039v-67.98h161.759l2.307 1.82Zm181.795 66.607h-168.7v-64.626h168.7Zm0-66.607h-168.7v-67.98h168.7Zm130.186 66.607H498.013v-64.626h117.091Z" fill="#6c63ff" opacity=".1" data-name="Path 6"/><path d="M176.74 301.66a.845.845 0 0 1-.065.2.525.525 0 0 1 .071-.2Z" fill="#eaecf0" data-name="Path 7"/><path d="M179.843 298.807h-3.675l-2.759.036-.3-3.134-.28-2.974-1.3-13.565-.042-.416v-.184l-.363-3.818 5.555-2.081.678 5.537.048.41v.048l1.374 11.24.422 3.449.244 2 .208 1.719v.059Z" fill="#eaecf0" data-name="Path 8"/><path d="m199.785 301.65.065.2h-.44l-.065-.2Z" fill="#3a3768" data-name="Path 9"/><path d="M285.919 223.3v.256s-5.186 14.172-6.875 26.268q-.172 1.189-.285 2.379a45.205 45.205 0 0 0-.184 2.456 34.703 34.703 0 0 0-.036 2.7v.595c0 .4.042.809.065 1.231s.06.844.1 1.285.071.827.113 1.249c1.279 13.083 6.137 32.239 6.137 32.239s.161.517.369 1.4h-1.348c-8.367.137-16.753.375-25.144.66l-1.51.048h-.5c-17.841.63-35.682 1.469-53.476 2.07l-4.347.143h-.63q-9.277.3-18.537.458h-1.636a10.02 10.02 0 0 1 1.439-1.624 10.468 10.468 0 0 1 1.457-1.13 32.8 32.8 0 0 1 9.129-3.919 7.279 7.279 0 0 1 2.087-.256l4.163.083h.642l6.387.125 54.784 1.088h.137l.387-.077a10.263 10.263 0 0 0 1.849-.654 6.494 6.494 0 0 0 3.9-5.043c0-.184.048-.381.06-.595a7.033 7.033 0 0 0 0-.868 2.948 2.948 0 0 0-.048-.636c-.048-.22-.059-.44-.1-.666-1.32-7.38-3.568-30.1-3.568-30.1v.071s0-.969.054-2.6v-.749c0-.363.042-.755.065-1.189 0-.256.036-.517.053-.791.03-.4.065-.809.1-1.237a.349.349 0 0 1 0-.077q.036-.4.071-.821v-.089c.886-8.772 3.675-22.658 12.489-27.8 4.133-2.42 6.869-2.908 8.671-2.432 2.629.69 3.289 3.425 3.431 5.2v.345a8.683 8.683 0 0 1 .085 1.004Z" fill="#3a3768" data-name="Path 11"/><path d="M176.74 301.66a.845.845 0 0 1-.065.2.525.525 0 0 1 .071-.2Z" opacity=".1" data-name="Path 12"/><path d="m199.785 301.65.065.2h-.44l-.065-.2Z" opacity=".1" data-name="Path 13"/><path d="M285.925 223.297v.184a161.855 161.855 0 0 0-6.316 22.89q-.214 1.189-.392 2.3c-.059.381-.113.761-.167 1.142q-.172 1.189-.285 2.379a45.205 45.205 0 0 0-.184 2.456 34.703 34.703 0 0 0-.036 2.7v.595c0 .4.042.809.065 1.231s.059.85.1 1.285.071.827.113 1.249.083.827.131 1.243c.19 1.683.428 3.449.7 5.245 1.861 12.114 5.3 25.685 5.3 25.685s.172.547.381 1.463h-1.344c-8.367.137-16.753.375-25.144.66l-1.511.048h-.5c-17.841.63-35.682 1.469-53.476 2.07l-4.347.143h-.63q-9.277.3-18.537.458h-1.691a10.219 10.219 0 0 1 1.487-1.683 9.844 9.844 0 0 1 1.463-1.142 33.147 33.147 0 0 1 9.129-3.919 7.487 7.487 0 0 1 2.087-.25l4.163.083h.642l6.4.125 54.826 1.082h.1a1.507 1.507 0 0 0 .428-.089 9.61 9.61 0 0 0 1.861-.672 6.488 6.488 0 0 0 3.848-4.942c0-.184.048-.381.059-.595a7.015 7.015 0 0 0 0-.868 2.954 2.954 0 0 0-.048-.636c-.048-.22-.059-.482-.1-.731-1.32-7.38-3.568-30.1-3.568-30.1s0-.969.054-2.6v-.749c0-.363.042-.755.065-1.189 0-.256.036-.517.054-.791.03-.4.065-.809.1-1.237a.348.348 0 0 1 0-.077q.036-.4.071-.821v-.089c.107-1.094.25-2.272.428-3.5 1.237-8.611 4.329-19.857 12.037-24.383 4.026-2.379 6.72-2.878 8.528-2.468 2.783.636 3.443 3.5 3.568 5.311v.345a8.685 8.685 0 0 1 .083 1.16Z" opacity=".1" data-name="Path 15"/><path d="M176.74 301.66a.845.845 0 0 1-.065.2.525.525 0 0 1 .071-.2Z" fill="#3a3768" data-name="Path 16"/><path d="m199.785 301.65.065.2h-.44l-.065-.2Z" fill="#3a3768" data-name="Path 17"/><path d="M284.395 222.794s-7.761 21.207-7.386 33.9 6.435 36.539 6.435 36.539.262.839.541 2.177c-8.367.137-16.753.375-25.144.66l-1.511.048h-.5c-17.841.63-35.682 1.469-53.476 2.07l-4.347.143h-.63q-9.277.3-18.537.458h-3.675a10.7 10.7 0 0 1 3.265-3.431l.161-.113a33.1 33.1 0 0 1 9.123-3.836 7.489 7.489 0 0 1 2.087-.25l5.5.107h.642l6.619.131 53.375 1.065a8.972 8.972 0 0 0 2.206-.72 6.335 6.335 0 0 0 .678-.363 7.136 7.136 0 0 0 1.784-1.457 6.736 6.736 0 0 0 1.37-5.95c-1.326-7.38-3.568-30.1-3.568-30.1s-.381-27.642 12.869-35.4c5.352-3.134 8.362-3.027 10.045-1.784a1.115 1.115 0 0 1 .143.107c2.317 1.866 1.931 5.999 1.931 5.999Z" fill="#3a3768" data-name="Path 19"/><path d="m70.839 274.831-.214 2.218-1.3 13.613q-3.039-.636-6.066-1.332l1.516-12.376.511-4.2Z" fill="#eaecf0" data-name="Path 20"/><path d="m32.777 270.43 32.387-68.932 130.46 10.175 12.025 58.757z" fill="#efc6cd" data-name="Path 21"/><path d="M32.777 276.44v-6.012h174.87v8.79z" fill="#d48a9b" data-name="Path 22"/><path d="m82.086 260.36 78.239 1.594a1.082 1.082 0 0 0 1.053-1.421l-12.2-32.9-52.7-1.005-15.587 31.912a1.3 1.3 0 0 0 1.189 1.82z" fill="#dfe6f5" data-name="Path 23"/><path d="m82.086 260.36 78.239 1.594a1.082 1.082 0 0 0 1.053-1.421l-12.2-32.9-52.7-1.005-15.587 31.912a1.3 1.3 0 0 0 1.189 1.82z" opacity=".15" data-name="Path 24"/><path d="m81.46 258.99 79.048 1.665-10.746-32.548a2.682 2.682 0 0 0-2.492-1.844l-50.8-.963Z" fill="#dfe6f5" data-name="Path 25"/><path d="m87.992 251.62 9.474-20.844a2.527 2.527 0 0 1 2.3-1.475h23.544a2.516 2.516 0 0 1 2.516 2.516v22.521a2.522 2.522 0 0 1-2.64 2.516l-33.024-1.683a2.516 2.516 0 0 1-2.165-3.55z" fill="#4c4c56" data-name="Path 26"/><path d="m134.425 248.978.4-11.894a1.826 1.826 0 0 1 1.82-1.784h6.958a1.82 1.82 0 0 1 1.784 1.511l2.049 11.829a1.826 1.826 0 0 1-1.784 2.135l-9.414.083a1.82 1.82 0 0 1-1.813-1.88Z" fill="#d1d9ec" data-name="Path 27"/><path d="m42.245 171.62 26.232-2.189a1.784 1.784 0 0 1 1.867 1.053l24.805 56.146-13.845 31.079c.434-.975.755 6.613-2.379.036l-39.422-82.242c-.531-1.1 1.511-3.728 2.742-3.883z" fill="#4c4c56" data-name="Path 28"/><path d="m42.245 171.62 26.232-2.189a1.784 1.784 0 0 1 1.867 1.053l24.805 56.146-13.845 31.079c.434-.975.755 6.613-2.379.036l-39.422-82.242c-.531-1.1 1.511-3.728 2.742-3.883z" opacity=".15" data-name="Path 29"/><path d="m42.245 171.62 27.564-3.521a1.784 1.784 0 0 1 1.867 1.053l24.811 56.146-15.01 33.69-40.642-84.817a1.784 1.784 0 0 1 1.409-2.551z" fill="#4c4c56" data-name="Path 30"/><path d="m49.125 175.57 19.928-3.1a1.784 1.784 0 0 1 1.933 1.094l20.874 51.061a1.618 1.618 0 0 1-.036 1.308l-9.557 19.97a1.612 1.612 0 0 1-2.92 0l-31.573-67.8a1.784 1.784 0 0 1 1.35-2.533z" fill="#6c63ff" data-name="Path 31"/><path transform="translate(-86.425 -261.36)" d="M348.186 551.98s-.41.678-1.011 1.784l-.053.1a70.37 70.37 0 0 0-1.855 3.568l-1.511.048h-.5c-17.841.63-35.682 1.469-53.476 2.07l-4.347.143h-.63q-9.277.3-18.537.458h-3.675l-2.759.036q-4.3.042-8.582.048h-3.4c-10.479-.03-20.916-.262-31.287-.8l-1.154-.065c2.04-4.437 5.685-11.71 8.647-14.035 2.29-1.784 18.733-3.764 33.856-5.216l1.594-.155h.036l4.222-.393c5.786-.529 11.038-.957 14.784-1.249l.345-.03-1.951-6.542-2.825-9.515.8-7.993.065-.642h-.089a5.251 5.251 0 0 1-2.379-.3l-28.242-.975h-.511l-10.847-.387c-5.816-.208-9.949-.363-10.11-.393a2.566 2.566 0 0 1-.5-.137 2.248 2.248 0 0 1-.69-.416 2.76 2.76 0 0 1-.595-.714h-.381l-1.534.1-.779.054c-.03-.083-.054-.167-.083-.244-.071-.232-.143-.452-.208-.678h-.41l-5.352-.113h-.1s-13.809 1.053-21.023-1.576c-2.646-.963-4.407-2.42-4.27-4.6a4.977 4.977 0 0 1 .309-1.451c-2.319-4.335 9.01-12.245 17.645-10.062a15.285 15.285 0 0 0 7.172.3 9.229 9.229 0 0 0 3.568-1.624c.107-.077.2-.155.291-.232a6.238 6.238 0 0 0-.428-.238 6.648 6.648 0 0 0-1.885-.654l2.343-.684h.036s8.326-.761 13.744-1.065h.036c1.612-.083 2.974-.137 3.782-.113 3.568.1 10.52-2.45 10.818-3.235s3.473 0 3.473 0l2.777-1.082c2.777-1.076 4.365-2.545 4.365-3.628s2.48-2.254 2.48-2.254a23.45 23.45 0 0 1 5.614-5.679 69.687 69.687 0 0 1 5.6-3.872A112.826 112.826 0 0 1 271 456.2c1.053-3.515 4.318-6.12 5.489-6.964l.428-.286a30.833 30.833 0 0 0-1.308-4.353 3.362 3.362 0 0 0-.143-.357c-.119-.28-.244-.553-.369-.809l-.184-.357c-.3.059-.595.113-.916.155a20.816 20.816 0 0 1-2.974.22 20.4 20.4 0 0 1-19.714-14.868s0 0 0-.036a20.137 20.137 0 0 1-.714-5.352 19.577 19.577 0 0 1 .678-5.138c.089-.357.2-.708.309-1.059a.943.943 0 0 1 .042-.119c.053-.161.107-.327.166-.488a20.917 20.917 0 0 1-2.658.232h-.595a12.584 12.584 0 0 1-4.978-.827 6.754 6.754 0 0 1-1.1-.595.143.143 0 0 1-.048-.036 5.578 5.578 0 0 1-1.225-.969 6.3 6.3 0 0 0 2.42-4.211c.161-1.285-.054-2.718.714-3.764a5.4 5.4 0 0 1 1.392-1.189c3.164-2.159 5.673-5.12 8.534-7.672s6.322-4.758 10.169-4.877c5.162-.161 9.706 3.431 14.82 4.109a40.145 40.145 0 0 1 4.716.529 16.237 16.237 0 0 1 4.787 2.426 12.018 12.018 0 0 1 3.414 2.9 10.235 10.235 0 0 1 1.392 3.324 36.763 36.763 0 0 1 1.189 7.618c.137 2.694 0 5.406.285 8.082a13.863 13.863 0 0 0 2.284 6.5h.077a8.925 8.925 0 0 0 .737.9c-.505.161-1.011.3-1.528.428a24.128 24.128 0 0 1-2.611.517 7.61 7.61 0 0 1-1.219.1 3.634 3.634 0 0 1-.844-.077l.523.351 1.451.975.547.363 1.1.731c.25-.731.595-.928.993-.88.809-.761 2.016.886 2.016.886.708 1.356 2.611 2.706 4.294 3.705a33.925 33.925 0 0 0 3.051 1.594c22.224 13.244 20.815 33.06 22.123 34.63s1.392 7.255 1.392 7.255 3.277 19.322 4.758 20.993.1 2.254 1.386 4.121.993 6.863.993 6.863.892 11.769 4.068 14.32c2.849 2.29 6.655 21.552 7.41 25.489Z" fill="url(#a)" data-name="Path 33"/><path d="M131.5 228.63s-3.087 4.859-11.829 2.623-20.309 6.221-17.008 10.4 24.585-1.189 24.585-1.189l8.165-1.653-.535-6.8z" fill="#d38884" data-name="Path 34"/><path d="M131.5 228.63s-3.087 4.859-11.829 2.623-20.309 6.221-17.008 10.4 24.585-1.189 24.585-1.189l8.165-1.653-.535-6.8z" opacity=".1" data-name="Path 35"/><path d="m134.345 228.366-3.788-.2-2.331.678s7.386 1.07 5.352 11.079l7.963-.482Z" fill="#a36468" data-name="Path 36"/><path d="m134.345 228.366-3.788-.2-2.331.678s7.386 1.07 5.352 11.079l7.963-.482Z" opacity=".1" data-name="Path 37"/><path d="M184.489 205.98s-10.4 5.947-13.315 10.889c0 0-2.426 1.189-2.426 2.236s-1.558 2.522-4.276 3.568l-2.724 1.07s-3.11-.779-3.4 0-7.089 3.3-10.592 3.206-17.2 1.189-17.2 1.189a12.174 12.174 0 0 1 6.9 13.506l32.364-1.356 12.235-2.723 7.2-7.19Z" fill="#444053" data-name="Path 38"/><path d="M184.489 205.98s-10.4 5.947-13.315 10.889c0 0-2.426 1.189-2.426 2.236s-1.558 2.522-4.276 3.568l-2.724 1.07s-3.11-.779-3.4 0-7.089 3.3-10.592 3.206-17.2 1.189-17.2 1.189a12.174 12.174 0 0 1 6.9 13.506l32.364-1.356 12.235-2.723 7.2-7.19Z" opacity=".1" data-name="Path 39"/><path d="m136.803 248.976-4.579-.089-5.352-.113s-25.275 1.945-24.781-6.137 19.934-10.919 22.64-8.6c2.052 1.754 6.8 3.17 8.962 3.747.69.184 1.112.285 1.112.285Z" fill="#d38884" data-name="Path 40"/><path d="m136.798 248.974-4.579-.089c-1.826-6.274.291-9.729 1.493-11.085.69.184 1.112.285 1.112.285Z" opacity=".1" data-name="Path 41"/><path d="m139.89 249.325-4.758.333-2.26.155c-3.11-9.135 1.915-12.733 1.915-12.733h1.488l2.432.291Z" fill="#a36468" data-name="Path 42"/><path d="m197.515 188.69-5.638 10.7s-.862-10.841-3.372-15.95a4.524 4.524 0 0 0-2.266-2.516c-2.379-.749 11.3-15.742 11.3-15.742a54.43 54.43 0 0 1 6.28 3.967c3.527 2.379 7.773 5.281 10.627 7.136 5.418 3.46-16.931 12.405-16.931 12.405z" fill="#d38884" data-name="Path 43"/><path d="M190.275 188.89s-4.532 2.908-5.792 7.184a119.97 119.97 0 0 0-2.432 11.954s2.046 18.364 3.11 19.239 5.114 19.239 5.114 19.239l3.925-2.623-5.15-23.128s3.425-29.718 1.225-31.865z" fill="#444053" data-name="Path 44"/><path d="M190.275 188.89s-4.532 2.908-5.792 7.184a119.97 119.97 0 0 0-2.432 11.954s2.046 18.364 3.11 19.239 5.114 19.239 5.114 19.239l3.925-2.623-5.15-23.128s3.425-29.718 1.225-31.865z" opacity=".1" data-name="Path 45"/><path d="M210.005 229.86h-22.652l3.669-35.736h18.983z" fill="#a36468" data-name="Path 46"/><path d="M157.523 301.66h.274l-.511.2Z" fill="#67647e" data-name="Path 47"/><path d="m200.137 285.383-4.431 1.7-.595.22-15.95 6.131-6.084 2.337-8.278 3.182h-3.378c-10.479-.03-20.916-.262-31.287-.8 2.01-4.407 5.525-11.46 8.391-13.738 2.236-1.784 18.234-3.711 33-5.162 1.844-.178 3.663-.351 5.436-.511l.422-.042a1401.71 1401.71 0 0 1 14.868-1.267l.595-.048 4.651-.357.488-.488.595 2.545.494 2.034Z" fill="#67647e" data-name="Path 48"/><path d="M157.523 301.66h.274l-.511.2Z" opacity=".1" data-name="Path 49"/><path d="m200.137 285.383-4.431 1.7-.595.22-15.95 6.131-6.084 2.337-8.278 3.182h-3.378c-10.479-.03-20.916-.262-31.287-.8 2.01-4.407 5.525-11.46 8.391-13.738 2.236-1.784 18.234-3.711 33-5.162 1.844-.178 3.663-.351 5.436-.511l.422-.042a1401.71 1401.71 0 0 1 14.868-1.267l.595-.048 4.651-.357.488-.488.595 2.545.494 2.034Z" opacity=".1" data-name="Path 50"/><path d="M157.523 301.66h.274l-.511.2Z" fill="#67647e" data-name="Path 51"/><path d="M176.74 301.66a.845.845 0 0 1-.065.2.525.525 0 0 1 .071-.2Z" fill="#67647e" data-name="Path 52"/><path d="M199.851 301.85h-.44l-.065-.2h.44Z" fill="#67647e" data-name="Path 53"/><path d="m203.925 279.167-.369 12.239v.726l-.184 6.06-4.347.143h-.63q-9.277.3-18.537.458h-3.675l-2.759.036q-4.3.042-8.582.048h-3.417c3.092-1.915 7.095-4.026 11.4-6.137 1.933-.951 3.937-1.9 5.947-2.831 5.352-2.486 10.77-4.835 15.189-6.708l.565-.238a522.162 522.162 0 0 1 4.591-1.921c2.866-1.189 4.686-1.9 4.811-1.951Z" fill="#67647e" data-name="Path 54"/><path d="M164.208 228.867a22.335 22.335 0 0 0 4.1 6.494c.291.286.8.547 1.059.232a.749.749 0 0 0 .113-.44 5.673 5.673 0 0 0-1.07-3.033c-.595-.916-1.3-1.748-1.826-2.7s-1.136-2.783-2.325-3.033c-1.534-.321-.39 1.779-.051 2.48Z" opacity=".1" data-name="Path 55"/><path d="M203.795 169.14c-.083.3-.172.595-.268.88a20.036 20.036 0 0 1-15.022 13.411 4.524 4.524 0 0 0-2.266-2.516c-2.379-.749 11.3-15.742 11.3-15.742a63.364 63.364 0 0 1 6.256 3.967Z" opacity=".1" data-name="Path 56"/><path d="M204.505 163.42a19.976 19.976 0 1 1-5.851-14.167 20.018 20.018 0 0 1 5.851 14.167z" fill="#d38884" data-name="Path 57"/><path d="M192.175 193.15s-4.163 5.055-3.5 8.362h5.049l3.693-4.163z" fill="#67647e" data-name="Path 58"/><path d="m206.975 171.81-15.879 21.832s4.08 5.834 6.024 6.125 13.036-25.822 13.036-25.822z" opacity=".1" data-name="Path 59"/><path d="M207.185 171.42 191.3 193.28s4.08 5.828 6.024 6.12 13.036-25.82 13.036-25.82z" fill="#a36468" data-name="Path 60"/><path d="M189.255 199.38s-.779 12.239-1.558 14.671 0 24.775 0 24.775l7.291-3.009-1.267-34.3Z" fill="#67647e" data-name="Path 61"/><path d="m199.785 301.65.065.2h-.44l-.065-.2Z" opacity=".1" data-name="Path 62"/><path d="m259.512 291.112-.363.595c-.226.369-.47.827-.785 1.409a.448.448 0 0 0-.042.071 80.22 80.22 0 0 0-1.493 2.9c-17.841.63-35.682 1.469-53.476 2.07l-4.347.143h-.63l-1.867-6.3v-.065l-.2-.666-1.189-3.961-1.189-4.026-1.231-4.294-.452-1.558-.119-.392-1.939-6.6-2.629-8.962.85-8.552.059-.648.767-7.66.107-2.272.06-1.189v-.339l.131-2.759.393-8.207.2-4.2.036-.636.4-8.427 1.148-3.443.595-1.713 1.32-3.979.285-.981c.416-1.493 1.255-4.442 2.04-7.279l.071-.244.054-.184.559-2.016.7-2.587c.262-.993.434-1.7.476-1.945a38.128 38.128 0 0 1 2.664-4.758c2.974-4.918 7.446-12.156 7.957-14.582a.262.262 0 0 0 0-.059 2.976 2.976 0 0 1 .125-.434c.244-.726.595-.922.963-.874a1.189 1.189 0 0 1 .47.184 3.741 3.741 0 0 1 .928.892c.7 1.338 2.557 2.676 4.2 3.669l.321.184.19.113a33.292 33.292 0 0 0 2.474 1.279c21.766 13.119 20.41 32.75 21.671 34.3s1.362 7.2 1.362 7.2 3.205 19.143 4.662 20.815.1 2.236 1.362 4.086.969 6.738.969 6.738.874 11.656 3.984 14.184 7.398 25.959 7.398 25.959Z" opacity=".1" data-name="Path 64"/><path d="m260.096 290.925-.262.452c-.208.369-.541.951-.94 1.683l-.042.083a63.179 63.179 0 0 0-1.516 2.974h-.5c-17.841.63-35.682 1.469-53.476 2.07l-4.347.143-1.861-6.328v-.065l-.2-.666-1.231-4.163-1.189-4.044-1.189-4.038-.47-1.618-2.034-6.946-2.688-9.152.743-7.44.1-.993.821-8.451.315-6.589.387-7.963.1-2.087.113-2.414.048-1.017.387-7.957 1.148-3.437.494-1.481 1.154-3.479.244-.737s1.112-3.907 2.189-7.779c.042-.143.083-.285.119-.428.1-.333.184-.666.28-.993.1-.333.184-.66.268-.987.3-1.082.595-2.093.8-2.926.291-1.088.488-1.879.529-2.135a35.026 35.026 0 0 1 2.715-4.847c2.813-4.651 6.916-11.3 7.785-14.059a4.457 4.457 0 0 0 .119-.434 2.266 2.266 0 0 1 .517-1.189c.8-.767 1.98.88 1.98.88.7 1.338 2.557 2.682 4.2 3.669a31.53 31.53 0 0 0 2.974 1.576c21.766 13.119 20.41 32.75 21.671 34.308s1.362 7.19 1.362 7.19 3.205 19.143 4.662 20.815.1 2.236 1.362 4.08.969 6.8.969 6.8.874 11.662 3.985 14.19 7.405 25.929 7.405 25.929Z" fill="#444053" data-name="Path 65"/><path d="M215.705 176.42c-2.135 3.1-5.614 8.564-6.542 12.489 0 0-3.4 3.5-4.668 3.307s1.189 2.623 1.189 2.623l-13.363 18.518 1.9-5.691s3.984-13.993 4.163-15.254 9.854-15.706 10.621-19.34c.595-2.908 2.5-.291 2.5-.291.685 1.306 2.546 2.657 4.2 3.639z" opacity=".1" data-name="Path 66"/><path d="M215.705 176.03c-2.135 3.1-5.614 8.564-6.542 12.459 0 0-3.4 3.5-4.668 3.307s1.189 2.623 1.189 2.623l-13.363 18.518 1.9-5.691s3.984-13.993 4.163-15.26 9.854-15.7 10.621-19.334c.595-2.914 2.5-.291 2.5-.291.685 1.337 2.546 2.676 4.2 3.669z" fill="#444053" data-name="Path 67"/><path d="M233.665 214.4c.1 4.246-6.119 10.045-6.411 10.384s-19.34 16.057-19.34 16.057l-13.678 10.491a11.621 11.621 0 0 1-5.352 2.474l.934-9.384.922-19.03c2.135-2.379 4.2-4.877 4.252-5.673.1-1.647 3.568-3.4 3.568-3.4s2.432-2.04 2.04-3.205 1.291-6.75 1.291-6.75c.874-15.843 17.2-17.4 17.2-17.4a111.9 111.9 0 0 1 13.411 6.411c5.534 3.301 1.068 14.785 1.163 19.025z" opacity=".1" data-name="Path 68"/><path d="m139.894 249.325-4.758.333c-2.01-3.419.755-12.578.755-12.578h.387l2.432.291Z" opacity=".1" data-name="Path 69"/><path d="M219.085 188s-16.325 1.558-17.2 17.4c0 0-1.653 5.543-1.267 6.708s-2.04 3.205-2.04 3.205-3.5 1.748-3.568 3.4-8.921 10.669-8.921 10.669-3.687 4.2-12.239 4.639-12.536 3.057-12.536 3.057-4.163-2.914-7.2-2.04-17.782 2.04-17.782 2.04-3.919 12.988.969 13.8c.595.1 48.706 1.748 48.706 1.748s3.289 1.552 8.243-2.236 13.678-10.5 13.678-10.5 19.03-15.742 19.34-16.057 6.542-6.143 6.411-10.384 4.377-15.712-1.189-19.03A112.1 112.1 0 0 0 219.085 188z" fill="#444053" data-name="Path 70"/><path d="M204.513 163.41a19.975 19.975 0 0 1-.981 6.2 8.364 8.364 0 0 1-.737-1.017q-1.392-2.141-2.789-4.282a11.573 11.573 0 0 0-2.837-3.342 3.961 3.961 0 0 0-4.163-.44 4.169 4.169 0 0 0-1.784 3.336 37.869 37.869 0 0 0 .1 3.937 2.17 2.17 0 0 1-.363 1.421 2.331 2.331 0 0 1-1.534.595l-1.784.244a1.279 1.279 0 0 1-1.641-.815c-1.481-2.682-2.5-6.012-5.281-7.3-1.713-.8-3.973-.743-5.073-2.278a4.962 4.962 0 0 1-.428-3.741 29.526 29.526 0 0 1 1.041-4.234c.315-.975 1.017-2.92-.541-3.116-1.059-.137-2.522.987-3.057 1.784a15.88 15.88 0 0 0-1.047 2.771 6.619 6.619 0 0 1-3.657 3.4 10.478 10.478 0 0 1-2.522.684 20.018 20.018 0 0 1 39.072 6.149Z" opacity=".1" data-name="Path 71"/><path d="M172.664 149.866a16.255 16.255 0 0 0-1.047 2.765 6.625 6.625 0 0 1-3.651 3.4 14.052 14.052 0 0 1-5.013.892c-2.771.083-5.864-.339-7.648-2.462a6.262 6.262 0 0 0 2.379-4.163c.155-1.273-.054-2.694.7-3.735a5.352 5.352 0 0 1 1.356-1.148c3.1-2.141 5.555-5.079 8.362-7.6s6.191-4.716 9.961-4.835c5.049-.155 9.515 3.4 14.511 4.074a39.69 39.69 0 0 1 4.615.523 15.736 15.736 0 0 1 4.692 2.379 12.008 12.008 0 0 1 3.348 2.878 10.353 10.353 0 0 1 1.362 3.295 36.789 36.789 0 0 1 1.189 7.547c.137 2.664 0 5.352.285 8a12.683 12.683 0 0 0 2.944 7.315 26.17 26.17 0 0 1-4.05.934 4.216 4.216 0 0 1-2.575-.2 4.538 4.538 0 0 1-1.57-1.695l-2.789-4.282a11.572 11.572 0 0 0-2.837-3.342 3.961 3.961 0 0 0-4.163-.44 4.185 4.185 0 0 0-1.784 3.336 37.886 37.886 0 0 0 .1 3.937 2.171 2.171 0 0 1-.363 1.421 2.337 2.337 0 0 1-1.54.595l-1.784.244a1.279 1.279 0 0 1-1.641-.815c-1.481-2.688-2.5-6.012-5.281-7.3-1.713-.8-3.973-.743-5.073-2.278a4.962 4.962 0 0 1-.428-3.741 29.531 29.531 0 0 1 1.041-4.234c.315-.975 1.017-2.92-.541-3.122-1.068-.117-2.536 1.007-3.067 1.857Z" fill="#444053" data-name="Path 72"/><path d="M217.945 196.89a8.711 8.711 0 0 1 4.5.232c-3.669-1.5-9.64-.928-12.982 1.142.299.695 7.317-1.214 8.482-1.374z" opacity=".1" data-name="Path 73"/><path d="M219.695 201.765c3.657.244 7.434.755 10.9-.434-2.9-1-6.1-.369-9.152-.672-2.438-.244-4.918-1.088-7.3-.47-.993.256-4.651 1.939-4.4 3.17a19.762 19.762 0 0 1 9.952-1.594Z" opacity=".1" data-name="Path 74"/><path d="M210.015 209.754a5.5 5.5 0 0 1 2.272.238 34.749 34.749 0 0 0 8.373.922c2.153 0 4.472-.327 6.042-1.784Z" opacity=".1" data-name="Path 75"/><path d="M198.225 228.36a16.759 16.759 0 0 0 8.177 1.487 36.092 36.092 0 0 0 8.233-1.578 5.5 5.5 0 0 0 3.182-1.826z" opacity=".1" data-name="Path 76"/><path d="M224.555 230.987a43.686 43.686 0 0 0 18.15 5.62q-4.835-1.939-9.741-3.669a70.556 70.556 0 0 0-10.259-2.747 5.216 5.216 0 0 1 1.849.8Z" opacity=".1" data-name="Path 77"/><path d="M233.545 227.58a15.337 15.337 0 0 0 3.384.184 1.93 1.93 0 0 0 1.653-.595 29.015 29.015 0 0 1-7.559-1.112c-.708-.167-1.98-.559-2.575-.137 1.127.81 3.666 1.375 5.097 1.66z" opacity=".1" data-name="Path 78"/><path d="M248.88 280.71a24.578 24.578 0 0 0 7.951 9.468c-2.206-5.626-4.448-11.3-7.981-16.218-.892-1.237-2.224-3.009-3.848-3.235-.464 1.374.708 3.806 1.273 5.1a49.046 49.046 0 0 0 2.605 4.885Z" opacity=".1" data-name="Path 79"/><path d="M183.855 238.63a4.04 4.04 0 0 0 .375 2.783 2.01 2.01 0 0 0 1.13.779c-.285-.071-.595-2.866-.666-3.247-.131-.779 0-2.236-.553-2.813-.143.821-.197 1.665-.286 2.498z" opacity=".1" data-name="Path 80"/><path d="M186.955 237.536a6.34 6.34 0 0 0 2.973 4.026c-1.041-1.285-1.38-2.974-2.284-4.383-.291-.452-.63-1.1-1.189-1.189q.211.785.5 1.546Z" opacity=".1" data-name="Path 81"/><path d="M184.335 220.41a7.428 7.428 0 0 1-5.888.743c-.446-.131-1.487-.595-1.237-1.249s1.457-.2 1.951-.143l2.587.327c.475.06 2.2.548 2.587.322z" opacity=".1" data-name="Path 82"/><path d="M175.585 224.64c1.219-.155 2.313.69 3.455 1.148a10.525 10.525 0 0 0 3.925.523 2.192 2.192 0 0 0 1.832-.595c-3.098-.707-5.995-1.486-9.212-1.076z" opacity=".1" data-name="Path 83"/><path d="M190.285 188.88h.2l1.457 5.239-1.653 1.76Z" fill="#a36468" data-name="Path 84"/><g opacity=".1" data-name="Group 3"><path d="M158.065 147.34a12.276 12.276 0 0 0-.268 2.587 5.713 5.713 0 0 0 .161-.833c.071-.571.065-1.171.107-1.754z" data-name="Path 85"/><path d="M175.801 148.022a1.047 1.047 0 0 1 .975 1.189c.28-.987.434-2.2-.779-2.379-1.059-.131-2.522.993-3.057 1.814a16.635 16.635 0 0 0-1.047 2.771 6.607 6.607 0 0 1-3.651 3.4 14.052 14.052 0 0 1-5.013.892c-2.522.077-5.311-.274-7.136-1.939a6.05 6.05 0 0 1-.708.642c1.784 2.123 4.877 2.545 7.654 2.462a14.047 14.047 0 0 0 5.007-.892 6.637 6.637 0 0 0 3.657-3.4 16.238 16.238 0 0 1 1.041-2.765c.542-.825 1.999-1.926 3.057-1.795Z" data-name="Path 86"/><path d="M207.217 168.749a4.216 4.216 0 0 1-2.575-.2 4.591 4.591 0 0 1-1.57-1.695q-1.392-2.141-2.789-4.282a11.478 11.478 0 0 0-2.831-3.342 3.95 3.95 0 0 0-4.163-.44 4.262 4.262 0 0 0-1.814 3.336v.161a3.759 3.759 0 0 1 1.624-2.331 3.965 3.965 0 0 1 4.163.44 11.669 11.669 0 0 1 2.837 3.342q1.392 2.141 2.789 4.282a4.49 4.49 0 0 0 1.57 1.695 4.2 4.2 0 0 0 2.569.2 26.374 26.374 0 0 0 4.056-.934 8.7 8.7 0 0 1-.726-.9 25.522 25.522 0 0 1-3.14.668Z" data-name="Path 87"/><path d="M191.226 167.483a2.379 2.379 0 0 1-1.534.595l-1.784.244a1.279 1.279 0 0 1-1.641-.815c-1.481-2.688-2.5-6.012-5.281-7.3-1.713-.8-3.967-.743-5.067-2.278a4.377 4.377 0 0 1-.529-3.116c-.03.184-.071.363-.1.541a4.963 4.963 0 0 0 .434 3.741c1.1 1.534 3.36 1.481 5.067 2.278 2.783 1.29 3.806 4.615 5.287 7.3a1.7 1.7 0 0 0 .684.815 1.743 1.743 0 0 0 .957.042l1.784-.244a2.331 2.331 0 0 0 1.534-.595 2.135 2.135 0 0 0 .363-1.421 1.783 1.783 0 0 1-.174.213Z" data-name="Path 88"/></g><path d="m437.365 307.716-3.812-.529V250.91l.779.238 2.379.732v5.42l.03 2.444.054 5.031v6.863l.285 25.34v.678l.1 8.921v.137Z" fill="#eaecf0" data-name="Path 89"/><path d="m439.508 308.016-2.123-.3v-1.154l-.1-8.921v-.678l-.285-25.34v-6.863l-.054-5.031-.03-2.444v-5.415h2.29v7.273l.048 5.436v5.751l.22 26.6v.684l.071 8.843v.143Z" fill="#d3dae1" data-name="Path 90"/><path d="M670.845 243.93v48.575q-1.7 1.189-3.473 2.337l-.048-40.44v-4.294Z" fill="#eaecf0" data-name="Path 92"/><path d="M673.319 243.23v47.4a68.886 68.886 0 0 1-2.474 1.885V243.93Z" fill="#d3dae1" data-name="Path 93"/><path d="M618.099 312.071c-1.463.3-2.932.595-4.4.85l-.053-43.954v-1.9l4.24-1.784v4.027Z" fill="#eaecf0" data-name="Path 94"/><path d="M620.894 263.89v47.576c-.928.2-1.855.393-2.783.595l-.2-42.741v-4.032l.28-.131Z" fill="#d3dae1" data-name="Path 95"/><path d="m368.825 298.9-3.955-.4-.505-49.563v-2.359h3.883v2.694z" fill="#eaecf0" data-name="Path 96"/><path d="m371.775 299.22-2.974-.315-.595-49.628v-2.694h3v2.956z" fill="#d3dae1" data-name="Path 97"/><path d="m618.115 265.16 2.718-1.279v6l-2.646.886z" opacity=".1" data-name="Path 98"/><path d="M673.315 243.22v9.182l-2.468.827-3.527 1.172-.006-4.294 3.533-6.179Z" opacity=".1" data-name="Path 99"/><path d="M673.305 225.57v25.424l-55.081 18.358-.357-27.19z" fill="#d48a9b" data-name="Path 100"/><path d="m363.635 223.8 72.387-13.773 237.29 15.54-55.439 16.592z" fill="#efc6cd" data-name="Path 101"/><path d="m371.232 246.58.024 2.95-3-.262-3.9-.333-.018-2.355Z" opacity=".1" data-name="Path 102"/><path d="m439.056 255.358-2.29-.2-3.211-.274v-3.974l3.176.963h2.3Z" opacity=".1" data-name="Path 103"/><path d="M363.635 223.8v23.657l254.6 21.891-.357-27.19Z" fill="#d48a9b" data-name="Path 104"/><path d="M565.505 251.94h-33.256v-12.067l33.256 2.343z" fill="#d48a9b" data-name="Path 105"/><path d="M565.505 251.94h-33.256v-12.067l33.256 2.343z" opacity=".1" data-name="Path 106"/><path d="M487.575 237.22v19.066l127.65 9.711v-20.3l-49.789-2.825-4.948 4.413-20.3-1.409-7.238-5.3z" opacity=".1" data-name="Path 107"/><path d="M486.865 236.51v19.072l127.65 9.706v-20.3l-49.788-2.825-4.942 4.419-20.309-1.415-7.238-5.3z" fill="#fff" data-name="Path 108"/><path d="m408.122 231.39 30.193 2.123-.351 9.593H418.25l-13.185-5.176Z" fill="#d48a9b" data-name="Path 109"/><path d="m408.122 231.39 30.193 2.123-.351 9.593H418.25l-13.185-5.176Z" opacity=".1" data-name="Path 110"/><path d="M367.875 228.75v17.127l115.82 9.182v-18.185l-44.668-2.652-4.77 3.533-18.008-1.059-7.416-4.591z" opacity=".1" data-name="Path 111"/><path d="M367.165 228.04v17.127l115.82 9.182v-18.185l-44.668-2.644-4.764 3.527-18.014-1.059-7.416-4.591z" fill="#fff" data-name="Path 112"/><path d="m615.205 228.1 16.235 1.065-26.9 8.052-13.7-.987z" opacity=".1" data-name="Path 113"/><path d="m615.205 227.4 16.235 1.059-26.9 8.052-13.7-.987z" fill="#fff" data-name="Path 114"/><path d="M613.305 229.224c.642-.28 1.326.238 2.01.369.387.077.791 0 1.189.077.8.107 1.582.636 2.343.369Z" fill="#d3dae1" data-name="Path 115"/><path d="M612.465 229.706c.636-.274 1.32.244 2 .375.393.071.8 0 1.189.071.791.107 1.582.642 2.343.375Z" fill="#d3dae1" data-name="Path 116"/><path d="M610.535 230.686c.636-.274 1.32.238 2 .369.393.077.791 0 1.189.077.8.107 1.588.642 2.343.369Z" fill="#d3dae1" data-name="Path 117"/><path d="m505.705 219.2 36.2 2.373-7.714 11.077-39.8-4.252z" opacity=".1" data-name="Path 118"/><path d="m504.995 218.49 36.2 2.367-7.713 11.085-39.8-4.252z" fill="#3a3768" data-name="Path 119"/><path d="m506.595 219.3 31.573 1.933-6.726 9.028-34.713-3.467z" fill="#d5e1f4" data-name="Path 120"/><path d="M485.418 309.85a2.886 2.886 0 0 1-.03.505 3.411 3.411 0 0 1-.048.446 10.045 10.045 0 0 1-.862 3.027c-14.957-1.683-29.949-3.7-44.959-5.78l-2.123-.3-3.812-.529-3.211-.446a77.372 77.372 0 0 1-10.491-.981 54.264 54.264 0 0 1-6.482-1.368c-9.515-1.3-19.084-2.557-28.623-3.7l-1.243-.149c.226-1.011.416-1.624.416-1.624s2.046-8.04 3.747-17.026c.375-1.951.732-3.937 1.041-5.905.25-1.576.476-3.134.666-4.633a69.1 69.1 0 0 0 .274-2.426c.042-.393.077-.785.107-1.189s.065-.844.1-1.255.042-.773.059-1.148v-.559c0-.8 0-1.641-.03-2.5a73.738 73.738 0 0 0-2.022-12.733c-.167-.714-.339-1.427-.517-2.123-.054-.226-.113-.446-.172-.666-1.921-7.44-4.163-13.518-4.163-13.518a.681.681 0 0 1 0-.1.34.34 0 0 0 0-.071 1.4 1.4 0 0 0 0-.149v-1.059a9.113 9.113 0 0 1 .321-1.844 6.668 6.668 0 0 1 .226-.63 3.919 3.919 0 0 1 2.676-2.474c1.683-.434 4.228 0 8.07 2.278a13.893 13.893 0 0 1 1.784 1.225 7.545 7.545 0 0 1 .833.72c4.4 4.1 6.744 10.859 7.993 17.032.048.22.089.44.131.66a55 55 0 0 1 .387 2.236c.2 1.285.363 2.521.482 3.669 0 .309.065.595.1.91s.059.595.077.88c.077.928.131 1.784.167 2.51.1 1.927.083 3.11.083 3.11v.059a1.626 1.626 0 0 1-.03.256.112.112 0 0 0 0 .048v.535q-.036.375-.089.874c-.053.511-.113 1.112-.184 1.784-.048.5-.107 1.041-.167 1.612-.131 1.189-.274 2.569-.428 4.02-.036.274-.065.547-.1.821-.137 1.243-.28 2.539-.428 3.848-.161 1.487-.339 2.974-.511 4.442-.042.321-.083.642-.119.958-.44 3.568-.88 6.809-1.237 8.825a8.375 8.375 0 0 0-.119.9 2.765 2.765 0 0 0 0 .309 6.1 6.1 0 0 0 0 .809c.291 5.079 5.78 5.947 5.78 5.947l24.924-.494 3.7-.071 2.153-.042 19.429-.387 1.784-.036 9.664-.19a6.913 6.913 0 0 1 1.945.232 30.88 30.88 0 0 1 8.445 3.693 9.925 9.925 0 0 1 2.182 1.9.637.637 0 0 1 .083.1 10.288 10.288 0 0 1 2.337 5.566v.41a5.357 5.357 0 0 1 .034.949Z" fill="#3a3768" data-name="Path 124"/><path d="M485.419 309.841a2.885 2.885 0 0 1-.03.505 3.421 3.421 0 0 1-.048.446 10.407 10.407 0 0 1-.892 3.027c-14.957-1.683-29.949-3.7-44.959-5.781l-2.123-.3-3.812-.529-3.211-.446a77.362 77.362 0 0 1-10.491-.981 54.266 54.266 0 0 1-6.482-1.368c-9.515-1.3-19.084-2.557-28.623-3.7l-1.243-.149c.226-1.047.428-1.683.428-1.683s1.671-6.542 3.259-14.469c.113-.547.22-1.094.327-1.647l.161-.839c.369-1.945.725-3.943 1.041-5.905.25-1.576.476-3.134.666-4.633a69.1 69.1 0 0 0 .274-2.426c.042-.393.077-.785.107-1.189s.065-.844.1-1.255.042-.773.059-1.148v-.559c0-.8 0-1.641-.03-2.5a73.151 73.151 0 0 0-2-12.733q-.25-1.082-.517-2.123c-.059-.226-.113-.446-.172-.666-1.927-7.464-4.163-13.577-4.163-13.577a.19.19 0 0 0 0-.042.341.341 0 0 0 0-.071 1.438 1.438 0 0 0 0-.149v-1.059a9.125 9.125 0 0 1 .3-1.844c.065-.208.137-.422.22-.63a3.931 3.931 0 0 1 2.819-2.563c1.683-.392 4.2.1 7.957 2.3a14.4 14.4 0 0 1 1.855 1.3c.28.232.547.464.809.714 4.365 4.121 6.69 10.871 7.927 17.026.048.22.089.446.131.666.149.755.274 1.5.387 2.23.2 1.285.357 2.516.476 3.657.03.315.065.624.089.922s.059.595.077.88c.077.928.131 1.784.167 2.51.1 1.927.083 3.11.083 3.11v.31a.114.114 0 0 0 0 .048v.535q-.036.375-.089.874c-.054.511-.113 1.112-.184 1.784-.059.494-.113 1.035-.172 1.612-.131 1.189-.274 2.569-.428 4.02-.036.274-.065.547-.1.821-.137 1.243-.286 2.551-.428 3.86a748.424 748.424 0 0 1-.523 4.436c-.042.321-.077.642-.119.957-.434 3.568-.868 6.762-1.225 8.766a8.282 8.282 0 0 0-.119.969 2.781 2.781 0 0 0 0 .309 6.081 6.081 0 0 0 0 .809c.339 5.019 5.781 5.858 5.781 5.858l24.924-.488 3.693-.077 2.159-.042 19.465-.381 1.82-.036 9.628-.19a6.507 6.507 0 0 1 1.945.232 30.525 30.525 0 0 1 8.51 3.657 9.8 9.8 0 0 1 2.212 1.939.636.636 0 0 1 .083.1 10.188 10.188 0 0 1 2.308 5.59v.41a6.918 6.918 0 0 0-.064.989Z" opacity=".1" data-name="Path 126"/><path d="m485.461 313.91-.981-.113c-14.957-1.683-29.949-3.705-44.959-5.781l-2.123-.3-3.812-.529-3.211-.446a77.352 77.352 0 0 1-10.491-.981 54.252 54.252 0 0 1-6.482-1.368c-9.515-1.3-19.084-2.557-28.623-3.7a24.328 24.328 0 0 1 .595-2.474s5.65-22.248 6-34.076a61.4 61.4 0 0 0-1.85-14.451c-.167-.72-.333-1.433-.511-2.135l-.161-.666c-2.016-7.82-4.413-14.362-4.413-14.362a9.662 9.662 0 0 1 .137-2.42 6.5 6.5 0 0 1 .143-.636 4.853 4.853 0 0 1 1.534-2.569.8.8 0 0 1 .113-.083c1.564-1.189 4.371-1.273 9.367 1.653a14.65 14.65 0 0 1 2.789 2.135c.238.226.476.464.7.708 4.014 4.347 6.143 11.008 7.261 16.967l.125.66c.131.743.244 1.475.351 2.182v.059c.137.94.25 1.838.345 2.694a70.961 70.961 0 0 1 .428 7.594s-.232 2.349-.595 5.733c-.137 1.326-.3 2.813-.47 4.383v.238l-.089.833a560.46 560.46 0 0 1-.975 8.379c-.036.333-.077.66-.119.981-.381 3.051-.761 5.763-1.076 7.529-1.237 6.887 5.65 7.945 5.65 7.945l23.515-.464 3.687-.071 2.159-.048h1.2l18.65-.369h1.784l10.7-.214a6.682 6.682 0 0 1 1.945.238 30.675 30.675 0 0 1 8.516 3.651 10.112 10.112 0 0 1 2 1.7.96.96 0 0 1 .1.119 10.3 10.3 0 0 1 1.147 11.875Z" fill="#3a3768" data-name="Path 128"/><path d="m569.525 206.41 7.273 15.581h-1.219l-8.528-15.4z" fill="#4c4c56" data-name="Path 129"/><path d="m569.525 206.41 7.273 15.581h-1.219l-8.528-15.4z" opacity=".1" data-name="Path 130"/><path d="M569.525 221.99h7.273v1.629l-7.273.184Z" fill="#4c4c56" data-name="Path 131"/><path d="M569.525 221.99h7.273v1.629l-7.273.184Z" opacity=".1" data-name="Path 132"/><path d="M512.955 149.08v54.409a4.038 4.038 0 0 0 4.038 4.038h90.692a4.014 4.014 0 0 0 4.014-4.092l-1.029-54.457a4.014 4.014 0 0 0-4.014-3.937h-89.663a4.038 4.038 0 0 0-4.038 4.039z" fill="#4c4c56" data-name="Path 133"/><path d="M512.955 149.08v54.409a4.038 4.038 0 0 0 4.038 4.038h90.692a4.014 4.014 0 0 0 4.014-4.092l-1.029-54.457a4.014 4.014 0 0 0-4.014-3.937h-89.663a4.038 4.038 0 0 0-4.038 4.039z" opacity=".1" data-name="Path 134"/><path d="M509.685 149.08v54.409a4.038 4.038 0 0 0 4.038 4.038h90.692a4.008 4.008 0 0 0 4.008-4.092l-1.029-54.457a4.014 4.014 0 0 0-4.008-3.937h-89.64a4.038 4.038 0 0 0-4.061 4.039z" fill="#4c4c56" data-name="Path 135"/><path d="M513.245 152.48v47.9a4.038 4.038 0 0 0 4.038 4.038h83.978a4.014 4.014 0 0 0 4.014-4.014V152.45a4.014 4.014 0 0 0-4.014-4.008h-83.978a4.038 4.038 0 0 0-4.038 4.038z" fill="#6c63ff" data-name="Path 136"/><path d="m549.585 206.63 7.975 15.361h18.019l-9.01-17.573z" fill="#4c4c56" data-name="Path 137"/><path d="m543.235 221.99-1.332 1.629h27.624v-1.629z" fill="#4c4c56" data-name="Path 138"/><path transform="translate(-289.745 -257.75)" d="M716.5 423.336c-1.98-5.566-1.968-11.745-4.371-17.139a20.872 20.872 0 0 1-1.005-2.379 6.974 6.974 0 0 1-.274-1.552l-.149.036-.149.042-.149.059-.137.083a5.193 5.193 0 0 0 .137.523 20.006 20.006 0 0 0 1.017 2.379c2.45 5.424 2.432 11.626 4.448 17.246a1.619 1.619 0 0 0 .375.66.886.886 0 0 0 .3.184c-.013-.065-.031-.1-.043-.142Zm0 0c-1.98-5.566-1.968-11.745-4.371-17.139a20.872 20.872 0 0 1-1.005-2.379 6.974 6.974 0 0 1-.274-1.552l-.149.036-.149.042-.149.059-.137.083a5.193 5.193 0 0 0 .137.523 20.006 20.006 0 0 0 1.017 2.379c2.45 5.424 2.432 11.626 4.448 17.246a1.619 1.619 0 0 0 .375.66.886.886 0 0 0 .3.184c-.013-.065-.031-.1-.043-.142Zm0 0c-1.98-5.566-1.968-11.745-4.371-17.139a20.872 20.872 0 0 1-1.005-2.379 6.974 6.974 0 0 1-.274-1.552l-.149.036-.149.042-.149.059-.137.083a5.193 5.193 0 0 0 .137.523 20.006 20.006 0 0 0 1.017 2.379c2.45 5.424 2.432 11.626 4.448 17.246a1.619 1.619 0 0 0 .375.66.886.886 0 0 0 .3.184c-.013-.065-.031-.1-.043-.142Zm0 0c-1.98-5.566-1.968-11.745-4.371-17.139a20.872 20.872 0 0 1-1.005-2.379 6.974 6.974 0 0 1-.274-1.552l-.149.036-.149.042-.149.059-.137.083a5.193 5.193 0 0 0 .137.523 20.006 20.006 0 0 0 1.017 2.379c2.45 5.424 2.432 11.626 4.448 17.246a1.619 1.619 0 0 0 .375.66.886.886 0 0 0 .3.184c-.013-.065-.031-.1-.043-.142Zm0 0c-1.98-5.566-1.968-11.745-4.371-17.139a20.872 20.872 0 0 1-1.005-2.379 6.974 6.974 0 0 1-.274-1.552l-.149.036-.149.042-.149.059-.137.083a5.193 5.193 0 0 0 .137.523 20.006 20.006 0 0 0 1.017 2.379c2.45 5.424 2.432 11.626 4.448 17.246a1.619 1.619 0 0 0 .375.66.886.886 0 0 0 .3.184c-.013-.065-.031-.1-.043-.142Zm0 0c-1.98-5.566-1.968-11.745-4.371-17.139a20.872 20.872 0 0 1-1.005-2.379 6.974 6.974 0 0 1-.274-1.552l-.149.036-.149.042-.149.059-.137.083a5.193 5.193 0 0 0 .137.523 20.006 20.006 0 0 0 1.017 2.379c2.45 5.424 2.432 11.626 4.448 17.246a1.619 1.619 0 0 0 .375.66.886.886 0 0 0 .3.184c-.013-.065-.031-.1-.043-.142Zm0 0c-1.98-5.566-1.968-11.745-4.371-17.139a20.872 20.872 0 0 1-1.005-2.379 6.974 6.974 0 0 1-.274-1.552l-.149.036-.149.042-.149.059-.137.083a5.193 5.193 0 0 0 .137.523 20.006 20.006 0 0 0 1.017 2.379c2.45 5.424 2.432 11.626 4.448 17.246a1.619 1.619 0 0 0 .375.66.886.886 0 0 0 .3.184c-.013-.065-.031-.1-.043-.142Zm103.33 55.426-.458-.083.595-.131a.91.91 0 0 0 .172-.042c.66-.143 1.314-.3 1.957-.476l.672-.19.1-.03c5.543-1.635-.922-3.14-9.141-4.258h-.027c-8.873-1.189-19.756-1.969-19.756-1.969l-3.408.452h-.03c-4.163.547-10.734 1.451-11.781 1.784-1.273.422-12.073.94-15.837 1.106a1.642 1.642 0 0 0-.559-.595l-11.1-.511v1.528l-.083-.036a15.23 15.23 0 0 0-1.5-5.947l-.083-.167c-2.867-5.436-3.443-6.8-3.443-6.8a1.119 1.119 0 0 0-.077-.291c-.963-3.342-4.514-9.153-10.532-17.49l-.208-.291-.755-3.7-.131-.648h-3.788a49.524 49.524 0 0 1 2.629-9.4c.077-.19.155-.381.238-.565l.048-.107c.083-.2.178-.392.268-.595h.66a18.1 18.1 0 0 0 17.389-16.83.116.116 0 0 0 0-.048q.036-.553.036-1.106a17.7 17.7 0 0 0-2.379-8.921c-.048-.083-.1-.167-.149-.25l-.1-.161-.214-.333c1.356-.321 2.974.3 4.163-.464a3.045 3.045 0 0 0 1.017-1.225 6.369 6.369 0 0 0 .595-1.784.6.6 0 0 0 0-.1.078.078 0 0 0 0-.036 7.031 7.031 0 0 0 .089-1.225 6.6 6.6 0 0 0-.416-2.474 6.815 6.815 0 0 0-3.83-3.842 25.949 25.949 0 0 0-2.783-.755c-3.806-1.017-7.023-3.527-10.7-4.924a19.417 19.417 0 0 0-8.023-1.237 11.478 11.478 0 0 0-4.758 1.189 20.367 20.367 0 0 0-3.176 2.3c-2.647 2.087-5.65 3.871-7.951 6.363a14.225 14.225 0 0 0-1.154 1.427c-.2.291-.387.595-.595.892a1.594 1.594 0 0 0-1.433-.595 2.344 2.344 0 0 0-.291 0 5.777 5.777 0 0 0-.737.077c-.595.1-5.025 1.273-5.025 1.879a20.925 20.925 0 0 0-5.091 3.128c-3.568 3.265-4.365 8.439-4.817 13.208a122.4 122.4 0 0 0-.595 16.652c.083 2.022.244 4.044.149 6.066a45.112 45.112 0 0 1-1.053 7.065q-.767 3.628-1.659 7.232c-.285 1.189-.743 2.516-1.909 2.89l.434.059a2.088 2.088 0 0 1-.434.208 12.988 12.988 0 0 0 1.511.149h.351a4.1 4.1 0 0 0 .85-.1 3.176 3.176 0 0 0 1.076-.5c.048-.119.089-.238.131-.363a2.01 2.01 0 0 0 .714-1.106 7.868 7.868 0 0 1-.119 2.01 1.268 1.268 0 0 1-.059.291 8.206 8.206 0 0 1-2.046 3.877l.595-.452a8.743 8.743 0 0 1-.595.72q1.285-.963 2.569-1.968a1.238 1.238 0 0 0 .149-.113l1.463-1.154v1.422c-.119 4.1-.291 14.184.642 16.592.054.143.113.285.161.422 1.065 2.742 1.522 3.925 1.386 5.352-.1.993.648 3.836 1.059 6.1a7.564 7.564 0 0 1 .19 2.753 3.926 3.926 0 0 0 .107 1.641c.054.262.119.541.19.833a1.282 1.282 0 0 0 .077.315c.541 2.165 1.308 4.841.505 5.905a4.714 4.714 0 0 0-.595 1.189c-.66 1.784-.767 4.222-1.528 5.21a4.881 4.881 0 0 0-.523 3.449.105.105 0 0 1 0 .03s-.042.232-.125.595c-.1.5-.262 1.267-.464 2.117v.059a30.251 30.251 0 0 1-1.029 3.527c-.3.809-.595 1.392-.934 1.5-1.189.434-1.784 6.018-1.784 6.018s-2.724 4.419-2.206 5.507a7.284 7.284 0 0 0 .386.731l-.262.4c-1.457 2.337-3.568 6.583-1.522 8.867a10.112 10.112 0 0 0 2.438 1.861 43.3 43.3 0 0 0-.339.773c-2.248 5.269-5.709 17.508 7.606 22.67a42.23 42.23 0 0 0 4.038 1.326 54.257 54.257 0 0 0 6.482 1.368 79.44 79.44 0 0 0 9.515.85c1.415.048 2.813.059 4.163.048s2.575-.042 3.8-.1q1.088-.042 2.123-.107a111.058 111.058 0 0 0 12.209-1.338l19.03-3.408s7.993.285 10.937 1.974l.089.054s.482-.28 1.29-.827c.351-.238.767-.523 1.225-.862a40.177 40.177 0 0 0 11.341-12.62l.065-.113.648-.083h.149l.464-.065.963-.137h.172c2.409-.351 4.686-.737 4.686-.737s.089 2.658.2 5.739c.036.94.065 1.921.1 2.872.113 3.259.214 6.221.214 6.322s2.45 6.542 5.192 13.036l2.141.172q8.48.678 16.955 1.124l2.111.107 1.32.065a461.016 461.016 0 0 1-1.7-11.258l-3.533-16.455s-.369-3.408-3.015-18.555c-2.141-12.275-14.749-11.186-19.471-10.324-.482.089-.874.172-1.189.238v-.922s-9.057.761-17.246 1.13l-1.992.083c-1.9.071-3.7.113-5.281.113a38.642 38.642 0 0 1-4.163-.167c-6.322-.726-13.53 1.445-13.53 1.445s-9.212 1.493-10.443.946a3.172 3.172 0 0 0-1.041-.214h-.595a.952.952 0 0 0 .595-1.059c-.369-1.522-.517-3.628.517-5.079.452-.642 1.189-1.653 1.85-2.575l1.606-2.206v-.172l.042-.648.387-5.781.928-5.352.059-.339.083-.476.059-.345.178.059c2.635.916 5.62 1.558 7.731.821h.042a3.537 3.537 0 0 0 .488-.208h.1v.4l.036.7 9.926-.541h.149s.387-1.915.8-4.555c.03-.214.065-.434.1-.66l.131-.868a3.607 3.607 0 0 1 .059-.422h.595c4.6-.167 11.026-.559 13.642-1.51a2.974 2.974 0 0 0 .9-.482c1.112-.963 5.1-2.343 9.022-3.533l1.564-.464c1.136-.333 2.23-.642 3.2-.916 2.248-.595 3.854-1.035 3.854-1.035s15.462 1.433 27.011-1.9l.19-.054c4.335-1.375 1.635-2.54-3.535-3.522Zm-109.717-77.311a3.213 3.213 0 0 0 .065.529 1.5 1.5 0 0 0 .036.226.409.409 0 0 0 .048.232 5.226 5.226 0 0 0 .137.523 20.028 20.028 0 0 0 1.017 2.379c2.45 5.424 2.432 11.626 4.448 17.246a1.618 1.618 0 0 0 .375.66.887.887 0 0 0 .3.184l.143.048h.167l-.065.113a.6.6 0 0 1-.048.083l-.042.065c-.8 1.344-1.647 2.664-2.5 3.83a5.591 5.591 0 0 0-2.064.844l-.333.22-.143.107c-.208-1.023-.494-2.034-.755-3.045a70.275 70.275 0 0 1-2.3-16.5v-1.124c0-1.439.036-2.872.125-4.312a3.568 3.568 0 0 1 .505-1.891 1.3 1.3 0 0 1 .88-.428Zm6.387 21.891c-1.98-5.566-1.968-11.745-4.371-17.139a20.875 20.875 0 0 1-1.005-2.379 6.974 6.974 0 0 1-.274-1.552l-.149.036-.149.042-.149.059-.137.083a5.19 5.19 0 0 0 .137.523 20.006 20.006 0 0 0 1.017 2.379c2.45 5.424 2.432 11.626 4.448 17.246a1.618 1.618 0 0 0 .375.66.885.885 0 0 0 .3.184c-.018-.071-.036-.107-.048-.149Zm0 0c-1.98-5.566-1.968-11.745-4.371-17.139a20.875 20.875 0 0 1-1.005-2.379 6.974 6.974 0 0 1-.274-1.552l-.149.036-.149.042-.149.059-.137.083a5.19 5.19 0 0 0 .137.523 20.006 20.006 0 0 0 1.017 2.379c2.45 5.424 2.432 11.626 4.448 17.246a1.618 1.618 0 0 0 .375.66.885.885 0 0 0 .3.184c-.018-.071-.036-.107-.048-.149Zm0 0c-1.98-5.566-1.968-11.745-4.371-17.139a20.875 20.875 0 0 1-1.005-2.379 6.974 6.974 0 0 1-.274-1.552l-.149.036-.149.042-.149.059-.137.083a5.19 5.19 0 0 0 .137.523 20.006 20.006 0 0 0 1.017 2.379c2.45 5.424 2.432 11.626 4.448 17.246a1.618 1.618 0 0 0 .375.66.885.885 0 0 0 .3.184c-.018-.071-.036-.107-.048-.149Zm0 0c-1.98-5.566-1.968-11.745-4.371-17.139a20.875 20.875 0 0 1-1.005-2.379 6.974 6.974 0 0 1-.274-1.552l-.149.036-.149.042-.149.059-.137.083a5.19 5.19 0 0 0 .137.523 20.006 20.006 0 0 0 1.017 2.379c2.45 5.424 2.432 11.626 4.448 17.246a1.618 1.618 0 0 0 .375.66.885.885 0 0 0 .3.184c-.018-.071-.036-.107-.048-.149Zm0 0c-1.98-5.566-1.968-11.745-4.371-17.139a20.875 20.875 0 0 1-1.005-2.379 6.974 6.974 0 0 1-.274-1.552l-.149.036-.149.042-.149.059-.137.083a5.19 5.19 0 0 0 .137.523 20.006 20.006 0 0 0 1.017 2.379c2.45 5.424 2.432 11.626 4.448 17.246a1.618 1.618 0 0 0 .375.66.885.885 0 0 0 .3.184c-.018-.071-.036-.107-.048-.149Zm0 0c-1.98-5.566-1.968-11.745-4.371-17.139a20.875 20.875 0 0 1-1.005-2.379 6.974 6.974 0 0 1-.274-1.552l-.149.036-.149.042-.149.059-.137.083a5.19 5.19 0 0 0 .137.523 20.006 20.006 0 0 0 1.017 2.379c2.45 5.424 2.432 11.626 4.448 17.246a1.618 1.618 0 0 0 .375.66.885.885 0 0 0 .3.184c-.018-.071-.036-.107-.048-.149Z" fill="url(#b)" data-name="Path 139"/><path d="M446.645 168.718a13.87 13.87 0 0 0-2.284 3.533c-.089.2-.178.387-.262.595-2.629 5.947-3.521 14.362-3.521 14.362s-1.629-.732-3.937-1.873c-4.3-2.129-10.937-5.673-13.619-8.5-1.189-1.279-1.618-2.409-.63-3.2a7.32 7.32 0 0 0 .654-.595 18.917 18.917 0 0 0 2.076-2.462 50.407 50.407 0 0 0 2.5-3.878c.47-.8.916-1.6 1.332-2.379l.167-.309c1.784-3.384 3.086-6.274 3.086-6.274s.595.19 1.558.529c4.44 1.59 16.673 6.413 12.88 10.451Z" fill="#efb7b9" data-name="Path 140"/><path d="M528.049 306.502s.726 5.388 1.647 11.073l-2.111-.107q-8.469-.44-16.955-1.124c-3.211-7.44-6.542-16.271-6.542-16.408s-.1-3.045-.214-6.292c-.036-1.142-.077-2.319-.113-3.426-.059-1.677-.113-3.188-.143-4.127 0-.642-.036-1.023-.036-1.023s-3.057.535-5.8.91l-1.219.161a32.96 32.96 0 0 1-1.695.172 4.359 4.359 0 0 1-1.314 0c-.94-.363 1.011-9.515 1.011-9.515l4.853-11.745 1.356-3.271.595-.149c.291-.071.684-.155 1.154-.244 4.633-.85 17.008-1.933 19.108 10.282 2.6 15.088 2.974 18.477 2.974 18.477Z" fill="#efb7b9" data-name="Path 141"/><path d="M532.735 330.65h-.018z" fill="#efb7b9" data-name="Path 142"/><path d="M528.049 306.502s.726 5.388 1.647 11.073l-2.111-.107q-8.469-.44-16.955-1.124c-3.211-7.44-6.542-16.271-6.542-16.408s-.1-3.045-.214-6.292c-.036-1.142-.077-2.319-.113-3.426-.059-1.677-.113-3.188-.143-4.127 0-.642-.036-1.023-.036-1.023s-3.057.535-5.8.91l-1.219.161a32.96 32.96 0 0 1-1.695.172 4.359 4.359 0 0 1-1.314 0c-.94-.363 1.011-9.515 1.011-9.515l4.853-11.745 1.356-3.271.595-.149c.291-.071.684-.155 1.154-.244 4.633-.85 17.008-1.933 19.108 10.282 2.6 15.088 2.974 18.477 2.974 18.477Z" opacity=".05" data-name="Path 143"/><path d="M532.735 330.65h-.018z" opacity=".05" data-name="Path 144"/><path d="M527.583 317.469q-8.469-.44-16.955-1.124l-2.141-.172-.946-.077c-2.664-6.429-5.031-12.715-5.031-12.828s-.1-3.045-.214-6.292l-.291-8.576-.4.065-.167.03h-.214l-.957.161-.523.083c-.946.155-2.087.327-3.205.488l-.25.036-.654.083-.595.071c-.458.06-.892.107-1.285.143l-.482.042a4.164 4.164 0 0 1-1.314 0c-.94-.363 1.011-9.515 1.011-9.515l6.209-15.016.214-.059a24.862 24.862 0 0 1 1.951-.4c.351-.059.737-.119 1.154-.172 5.388-.69 15.641-.494 17.538 10.526 2.6 15.088 2.974 18.477 2.974 18.477l3.467 16.4s.452 3.386 1.106 7.626Z" fill="#efb7b9" data-name="Path 145"/><path d="m502.295 296.97-.291-8.582s-5.947 1.041-8.718 1.243l.559-1.891s10.181-2.813 10.4-1.225c.149 1.112-1.159 7.023-1.95 10.455z" opacity=".1" data-name="Path 146"/><path d="M502.508 261.36v4.3s-.505 7.731-4.478 19.56c-.083.256-.172.505-.268.755a26.973 26.973 0 0 1-1.475 3.318c-1.118.155-2.2.285-3 .345a4.349 4.349 0 0 1-1.314 0c-.94-.363 1.005-9.515 1.005-9.515l6.209-15.01.22-.059 1.35-3.277a15.681 15.681 0 0 1 1.751-.417Z" opacity=".1" data-name="Path 147"/><path d="M501.354 260.68v4.978s-.505 7.731-4.478 19.566c-.1.309-.214.595-.327.91s-.262.69-.41 1.023c-.327.791-.7 1.558-1.082 2.3a39.717 39.717 0 0 1-10.859 12.429c-.44.339-.85.636-1.189.886h-.03c-.595.4-1.023.7-1.3.868s-.3.184-.3.184c-2.819-1.731-10.83-2.022-10.83-2.022l-18.7 3.4a108.367 108.367 0 0 1-12.352 1.4l-2.123.1c-1.225.048-2.5.077-3.8.083-1.053 0-2.123 0-3.211-.042a77.362 77.362 0 0 1-10.491-.981 52.389 52.389 0 0 1-5.662-1.255 39.841 39.841 0 0 1-3.919-1.308c-13.083-5.138-9.676-17.324-7.469-22.6.119-.28.232-.535.339-.773.488-1.076.85-1.707.85-1.707l.868-2.1 1.421-3.443.315-.755.089-.22 1.053-2.551 14.868-1.927 10.925-1.415 3.324-.428 2.254-.291 4.3-.559 1.618-.208a20.12 20.12 0 0 1 3.015-.238 4.214 4.214 0 0 1 1.606.238c1.189.541 10.253-.94 10.253-.94s7.071-2.165 13.28-1.445a73.873 73.873 0 0 0 9.224.059l.761-.036.987-.042h.214c8.049-.378 16.968-1.138 16.968-1.138Z" fill="#444053" data-name="Path 148"/><path d="M447.865 275.62s-7.135 16.242-7.435 16.527-.285 5.352 0 5.055 10.181-22.23 10.181-22.23z" opacity=".1" data-name="Path 149"/><path d="M482.443 261.881s-3.61 2.331-4.692 4.211-10.972 20.571-13.422 23.312a59.879 59.879 0 0 0-5.489 7.808c-.286.494-.286 3.6 1.445.636s1.3-3.461 4.692-7.136 7.136-11.983 8.587-13.642 3.467-6.643 5.995-9.6l4.841-5.656Z" opacity=".1" data-name="Path 150"/><path d="M483.305 293.96s-2.527-1.731-4.906 1.225 4.906-1.225 4.906-1.225z" opacity=".1" data-name="Path 151"/><path d="M486.405 294.85s-2.093 3.651-3.1 3.943 3.1-3.943 3.1-3.943z" opacity=".1" data-name="Path 152"/><path d="M483.305 295.76s-1.659 2.89-3.1 2.6z" opacity=".1" data-name="Path 153"/><path d="M471.625 217.73s15.3-.648 16.818-1.154 14.939-2.236 14.939-2.236 39.774 2.813 28.445 6.209-26.708 1.945-26.708 1.945-15.016 3.9-17.324 5.947-19.346 2.089-19.346 2.089z" fill="#efb7b9" data-name="Path 154"/><path d="M471.625 217.73s15.3-.648 16.818-1.154 14.939-2.236 14.939-2.236 39.774 2.813 28.445 6.209-26.708 1.945-26.708 1.945-15.016 3.9-17.324 5.947-19.346 2.089-19.346 2.089z" opacity=".05" data-name="Path 155"/><path d="M417.185 182.86s-14.005 4.758-7.22 16.89 15.522 17.845 15.522 17.845l22.521 15.593s9.456 5.412 13.785 3.176l7.071-.595 1.189-18.555s-5.947 4.621-12.417-1.784-14.439-10.758-15.088-14.219-17.21-21.316-25.363-18.351z" fill="#a36468" data-name="Path 156"/><path d="M461.435 222.13s7.291 2.6 7.006 2.742-7.006 2.67-7.006 2.67l.505 9.89 9.89-.541s3.61-18.008.505-19.815l-10.9-.505Z" fill="#67647e" data-name="Path 157"/><path d="M461.435 222.13s7.291 2.6 7.006 2.742-7.006 2.67-7.006 2.67l.505 9.89 9.89-.541s3.61-18.008.505-19.815l-10.9-.505Z" opacity=".1" data-name="Path 158"/><path d="M446.637 168.72a13.87 13.87 0 0 0-2.284 3.533c-.089.2-.178.387-.262.595-5.311 0-9.129-4.127-12.388-7.82-.595-.684-2.1.351-2.593-.416-.054-.089-.107-.178-.167-.268l.167-.309c1.784-3.384 3.086-6.274 3.086-6.274s.595.19 1.558.529c4.441 1.569 16.678 6.392 12.883 10.43Z" opacity=".1" data-name="Path 159"/><path d="M462.105 154.36a17.9 17.9 0 0 1-17.734 17.895h-.172a17.871 17.871 0 0 1-13.428-6.066 18.236 18.236 0 0 1-1.641-2.171 17.906 17.906 0 1 1 32.976-9.658z" fill="#efb7b9" data-name="Path 160"/><path d="M443.891 265.37s-1.362 1.665-2.867 3.217a11.178 11.178 0 0 1-3.128 2.557c-1.784.654-9.961 6.857-9.961 6.857s-6.494 4.407-8.153 5.7-7.654.505-7.654.505-5.769-1.261-9.343-3.568a23.232 23.232 0 0 1 1.189-2.474l3.753-9.1 14.867-1.914Z" opacity=".1" data-name="Path 161"/><path d="M443.605 264.21s-1.356 1.665-2.86 3.217a11.611 11.611 0 0 1-3.128 2.557c-1.784.648-9.961 6.857-9.961 6.857s-6.5 4.407-8.159 5.7-7.648.505-7.648.505-8.231-1.784-11.121-5.055c-2.022-2.278.071-6.5 1.5-8.825a17.835 17.835 0 0 1 1.1-1.641Z" fill="#67647e" data-name="Path 162"/><path d="M454.285 208.27c-4.912-.434-21.082-20.22-21.082-20.22l.369-.506 3.39-4.692h7.931l.874 4.329c6.03 8.457 9.581 14.338 10.544 17.7.692 2.455.032 3.573-2.026 3.389z" fill="#67647e" data-name="Path 163"/><path d="M454.285 208.27c-4.912-.434-21.082-20.22-21.082-20.22l.369-.506a91.3 91.3 0 0 1 8.153 8.516c11.835 13.928 14.178 10.039 14.582 8.825.696 2.452.036 3.57-2.022 3.385z" opacity=".1" data-name="Path 164"/><path d="M443.604 264.21s-1.356 1.665-2.861 3.217a8.112 8.112 0 0 1-2.48.535c-1.879-.071-6.209 2.89-6.209 2.89s-7.648-.434-9.093.357-7.006.94-7.006.94c-10.175 2.9-12.988-1.5-13.732-2.974a17.846 17.846 0 0 1 1.1-1.641Z" opacity=".1" data-name="Path 165"/><path d="M461.28 221.227a6.282 6.282 0 0 1-.089.827c-.036.268-.071.541-.113.8a13.084 13.084 0 0 1-1.3 4.216c-1.3 2.165-5.269 10.609-5.269 10.609l-.268 1.558-.137.815-.143.8-.969 5.691-.434 6.571s-2.379 3.318-3.39 4.758-.868 3.538-.505 5.055-3.318 1.731-3.318 1.731-5.2 2.527-7.077 2.456-6.209 2.878-6.209 2.878-7.648-.434-9.093.363-7.006.94-7.006.94c-10.895 3.1-13.351-2.171-13.857-3.253s2.165-5.483 2.165-5.483.595-5.56 1.731-5.995 2.527-7.791 2.527-7.791-.434-2.242.505-3.467.868-4.692 2.093-6.351-1.3-7.22-.862-8.665-1.374-7.291-1.231-8.808-.357-2.742-1.516-5.775c-.987-2.587-.708-14.083-.595-17.377 0-.559.03-.88.03-.88s1.011-3.253 3.681-9.747a13.232 13.232 0 0 1 8.659-7.386 10.869 10.869 0 0 1 1.088-.268 7.641 7.641 0 0 1 1.534.387c2.105.708 6.316 2.712 12.322 8.326a92.363 92.363 0 0 1 7.511 7.921c13.541 15.914 14.648 8.486 14.648 8.486s.595 1.356 3.384 6.768a17.221 17.221 0 0 1 1.503 9.29Z" fill="#a36468" data-name="Path 166"/><path d="m438.985 181.98-13.583-10.835s-4.894.595-6.916 8.813l13.982 12.245z" opacity=".1" data-name="Path 167"/><path d="m438.975 181.98-2.379 3.324-2.414 3.408-1.82 2.67-11.163-9.4-1.921-1.665-1.076-.916c1.088-4.442 3.021-6.661 4.561-7.731a5.667 5.667 0 0 1 2.379-1.065z" fill="#67647e" data-name="Path 168"/><path d="M532.393 224.88c-11.335 3.39-26.708 1.951-26.708 1.951s-15.016 3.9-17.324 5.947c-1.487 1.3-9.081 1.784-14.273 1.98-2.884.107-5.043.113-5.043.113l3.17-12.8 1.832-.083c4.109-.19 13.8-.678 14.986-1.076 1.516-.505 14.939-2.236 14.939-2.236s39.75 2.804 28.421 6.204Z" fill="#efb7b9" data-name="Path 169"/><path d="M461.075 222.83a13.084 13.084 0 0 1-1.3 4.216c-1.3 2.165-5.269 10.609-5.269 10.609l-.547 3.205a39.122 39.122 0 0 1-5.352-2.462l-22.539-15.611s-8.736-5.7-15.522-17.841 7.22-16.89 7.22-16.89c8.153-2.974 24.686 14.868 25.334 18.335s8.593 7.8 15.088 14.219a13.2 13.2 0 0 0 2.887 2.22z" opacity=".1" data-name="Path 170"/><path d="M461.274 221.228a27.42 27.42 0 0 1-.2 1.624 13.083 13.083 0 0 1-1.3 4.216c-1.3 2.165-5.269 10.61-5.269 10.61l-.268 1.558a38.584 38.584 0 0 1-5.65-2.569l-22.525-15.617s-8.736-5.7-15.522-17.841 7.22-16.9 7.22-16.9c8.153-2.974 24.686 14.868 25.334 18.335s8.593 7.8 15.088 14.225a13.02 13.02 0 0 0 3.092 2.355Z" opacity=".1" data-name="Path 171"/><path d="m470.599 221.56-1.154 18.549-7.077.595a3.467 3.467 0 0 1-.482.208c-4.508 1.653-13.3-3.384-13.3-3.384l-22.521-15.611s-8.736-5.7-15.522-17.841 7.22-16.89 7.22-16.89c8.153-2.974 24.686 14.868 25.334 18.335s8.593 7.8 15.088 14.219a12.959 12.959 0 0 0 3.247 2.379 8.867 8.867 0 0 0 9.167-.559Z" fill="#a36468" data-name="Path 172"/><path d="m470.605 221.56-1.153 18.55-7.077.595a3.452 3.452 0 0 1-.482.208l-.458-9.016s6.714-2.527 7.006-2.67-7.006-2.742-7.006-2.742v-4.312a8.867 8.867 0 0 0 9.17-.613Z" opacity=".1" data-name="Path 173"/><path d="M474.055 234.72c-2.884.107-5.043.113-5.043.113l3.2-12.774 1.832-.083c1.177 2.032.671 7.991.011 12.744z" opacity=".1" data-name="Path 174"/><path d="M462.015 226.46s7.291 2.6 7.006 2.742-7.006 2.67-7.006 2.67l.505 9.89 9.89-.541s3.61-18.008.505-19.815l-10.9-.505Z" fill="#67647e" data-name="Path 175"/><path d="M418.775 238.3a14.938 14.938 0 0 1-4.478 2.92z" opacity=".1" data-name="Path 176"/><path d="M412.925 245.16s5.989-.22 6.708-1.445-6.708 1.445-6.708 1.445z" opacity=".1" data-name="Path 177"/><path d="M409.965 253.75c.363 0 7.576-1.011 7.868-1.951z" opacity=".1" data-name="Path 178"/><path d="M407.735 259.24c2.6-.077 7-2.89 7-2.89Z" opacity=".1" data-name="Path 179"/><path d="M424.545 260.67s15.664 0 16.384-2.884-16.384 2.884-16.384 2.884z" opacity=".1" data-name="Path 180"/><path d="M436.315 220.32c.291 0 12.346 0 13.5-1.659s-13.5 1.659-13.5 1.659z" opacity=".1" data-name="Path 181"/><path d="M423.039 173.062a11.52 11.52 0 0 1 .155 1.784 11.05 11.05 0 0 1-.178 1.98 17.147 17.147 0 0 1-1.118 3.61l-.125.291c-.178.416-.369.821-.565 1.225a33.683 33.683 0 0 1-3.116 5.138 56.191 56.191 0 0 1-9.349 9.723q-.91.767-1.838 1.517c0-.559.03-.88.03-.88s1.011-3.253 3.681-9.747a13.232 13.232 0 0 1 8.659-7.386l-1.076-.916c1.088-4.442 3.021-6.661 4.561-7.731.095.44.208.904.279 1.392Z" opacity=".1" data-name="Path 182"/><path d="M459.493 145.061a2.093 2.093 0 0 0-.523.208c-1.13.624-1.457 2.105-2.379 3.039-1.064 1.1-2.73 1.267-4.246 1.457s-3.211.565-4.014 1.867a9.562 9.562 0 0 0-.755 3.307 1.052 1.052 0 0 1-.232.547 1.07 1.07 0 0 1-.725.238c-2.974.208-5.138-.815-7.921-1.534a4.232 4.232 0 0 0-3.83.595 4.356 4.356 0 0 0-1.13 3.366v.107a22.986 22.986 0 0 1 .107 3.568 5.887 5.887 0 0 1-3.11 4.359 5.5 5.5 0 0 1-2.248.642 1.819 1.819 0 0 1-.892-.131c.529-.9 1.035-1.784 1.5-2.682a17.905 17.905 0 1 1 30.379-18.96Z" opacity=".1" data-name="Path 183"/><path d="M464.394 142.78a3.022 3.022 0 0 1-.993 1.219c-1.356.88-3.3-.089-4.716.7-1.136.624-1.457 2.105-2.379 3.039-1.059 1.1-2.724 1.267-4.246 1.457s-3.205.565-4.014 1.867a9.665 9.665 0 0 0-.755 3.307 1.006 1.006 0 0 1-.232.547 1.088 1.088 0 0 1-.726.238c-2.974.208-5.138-.821-7.921-1.534a4.223 4.223 0 0 0-3.824.595 4.145 4.145 0 0 0-1.136 3.372 26.053 26.053 0 0 1 .113 3.663 5.947 5.947 0 0 1-5.352 5 1.463 1.463 0 0 1-1.1-.28 1.576 1.576 0 0 1-.363-.654c-1.98-5.566-1.963-11.745-4.365-17.145a19.377 19.377 0 0 1-1.005-2.379c-.048-.167-.1-.339-.131-.511a7.822 7.822 0 0 1-.143-1.041 1.487 1.487 0 0 0-.678.28 1.25 1.25 0 0 0-.19.2 3.526 3.526 0 0 0-.5 1.885 71.365 71.365 0 0 0 2.141 22.105 23.107 23.107 0 0 1 1.029 5.549 14.826 14.826 0 0 1-1.427 5.882c-3.729 8.6-11.222 14.9-18.674 20.589a8.284 8.284 0 0 0 2.208-6.15 2.426 2.426 0 0 1-1.885 1.689 7.268 7.268 0 0 1-2.658-.042c1.142-.375 1.588-1.719 1.873-2.884q.874-3.568 1.624-7.2a45.345 45.345 0 0 0 1.047-7.029c.089-2.01-.065-4.026-.149-6.042a122.305 122.305 0 0 1 .595-16.562c.44-4.758 1.237-9.9 4.728-13.149a20.54 20.54 0 0 1 5-3.116c0-.595 4.359-1.784 4.936-1.867a4.689 4.689 0 0 1 .725-.083 1.493 1.493 0 0 1 1.552.815c.214-.387.452-.767.7-1.13a13.17 13.17 0 0 1 1.13-1.421c2.266-2.5 5.2-4.258 7.826-6.375a20.12 20.12 0 0 1 3.116-2.3 11.216 11.216 0 0 1 4.668-1.189 18.941 18.941 0 0 1 7.88 1.237c3.616 1.392 6.774 3.889 10.514 4.9a25.024 25.024 0 0 1 2.73.755 6.613 6.613 0 0 1 3.449 9.17Z" fill="#444053" data-name="Path 184"/><g opacity=".1" data-name="Group 4"><path d="M404.162 196.049a8.218 8.218 0 0 0 .541-3.509 2.438 2.438 0 0 1-1.891 1.689 3.858 3.858 0 0 1-.69.1 2.987 2.987 0 0 1-1.677 2.165 7.273 7.273 0 0 0 2.658.048 2.974 2.974 0 0 0 1.059-.494Z" data-name="Path 185"/><path d="M464.81 138.04a6.651 6.651 0 0 1-.714 2.7 3.063 3.063 0 0 1-1 1.189c-1.35.88-3.3-.083-4.716.7-1.13.624-1.457 2.111-2.379 3.039-1.064 1.1-2.73 1.273-4.246 1.457s-3.211.595-4.014 1.867a9.562 9.562 0 0 0-.755 3.307.833.833 0 0 1-.957.791c-2.974.208-5.138-.821-7.921-1.54a4.232 4.232 0 0 0-3.83.595 4.369 4.369 0 0 0-1.13 3.372 25.081 25.081 0 0 1 .107 3.657 5.911 5.911 0 0 1-5.352 5.007 1.481 1.481 0 0 1-1.1-.28 1.6 1.6 0 0 1-.363-.66c-1.98-5.566-1.969-11.745-4.371-17.139a20.813 20.813 0 0 1-1-2.379 6.978 6.978 0 0 1-.279-1.552 1.308 1.308 0 0 0-.868.482 3.651 3.651 0 0 0-.5 1.885 71.773 71.773 0 0 0 .595 14.273 71.957 71.957 0 0 1-.291-11.977 3.526 3.526 0 0 1 .5-1.885 1.248 1.248 0 0 1 .868-.482 7.031 7.031 0 0 0 .273 1.552 20.363 20.363 0 0 0 1.005 2.379c2.379 5.4 2.379 11.573 4.365 17.139a1.642 1.642 0 0 0 .369.66 1.439 1.439 0 0 0 1.094.327 5.947 5.947 0 0 0 5.352-5 26.063 26.063 0 0 0-.113-3.663 4.465 4.465 0 0 1 1.136-3.372 4.137 4.137 0 0 1 3.824-.595c2.783.714 4.936 1.742 7.921 1.534a1.088 1.088 0 0 0 .726-.238 1.029 1.029 0 0 0 .232-.553c.22-1.118.155-2.337.755-3.3.809-1.3 2.5-1.683 4.014-1.873s3.188-.351 4.252-1.451c.9-.934 1.219-2.414 2.379-3.045 1.409-.779 3.36.19 4.716-.69a3.022 3.022 0 0 0 .993-1.219 6.744 6.744 0 0 0 .422-5.013Z" data-name="Path 186"/><path d="M422.615 172.23a14.867 14.867 0 0 1-1.421 5.882c-3.336 7.69-9.688 13.541-16.319 18.757a8.325 8.325 0 0 1-2.07 4.163c7.446-5.685 14.951-11.983 18.674-20.583a14.826 14.826 0 0 0 1.427-5.882 13.031 13.031 0 0 0-.3-2.587c.003.06.009.155.009.25z" data-name="Path 187"/></g><path d="M423.365 137.97c-.535 2.462-1.273 5.662-1.826 7.309a8.919 8.919 0 0 1-.143-1.041 1.469 1.469 0 0 0-.672.28c0-1.731.208-4.306.387-6.233a1.5 1.5 0 0 1 1.558.815 10.332 10.332 0 0 1 .696-1.13Z" opacity=".1" data-name="Path 188"/><path d="M423.071 137.97c-.535 2.462-1.273 5.662-1.826 7.309a7.813 7.813 0 0 1-.143-1.041 1.487 1.487 0 0 0-.678.279c0-1.731.208-4.306.393-6.232a1.493 1.493 0 0 1 1.552.815c.215-.381.482-.761.702-1.13Z" fill="#67647e" data-name="Path 189"/><g opacity=".7" data-name="Group 5"><path d="M544.165 4.5h98.524v95.83h-98.524Z" fill="#2e001e" data-name="Path 190"/><path d="M539.715 0v104.81h107.481V0Zm4.478 4.484h98.524v95.848h-98.548Z" fill="#ff2bc2" data-name="Path 191"/><path d="M617.767 44.043a6.119 6.119 0 0 0-2.6-.452c-5.638 0-9.4 4.347-9.4 11.555 0 8.243 3.854 11.555 8.867 11.555a8.361 8.361 0 0 0 3.092-.494V44.043ZM597.69 55.509c0-10.437 6.714-18.59 17.734-18.59a18.623 18.623 0 0 1 2.325.1v-11.65a.452.452 0 0 1 .452-.452h7.204c.357 0 .446.137.446.363v40.927a31.558 31.558 0 0 0 .226 4.389c0 .315 0 .363-.268.494a26.72 26.72 0 0 1-11.466 2.6c-9.717 0-16.652-6-16.652-18.18Zm-15.272-7.255 12.554 24.3c.226.357.089.714-.268.714h-7.791a.874.874 0 0 1-.94-.595q-4.3-8.867-8.778-18.406h-.09c-2.688 6-5.644 12.542-8.51 18.436a.862.862 0 0 1-.809.494h-7.434c-.446 0-.488-.363-.268-.63l12.269-23.6-11.864-23.4a.4.4 0 0 1 .315-.672h7.7c.446 0 .672.089.8.494 2.825 5.947 5.691 11.823 8.379 17.841h.089c2.593-5.911 5.459-11.894 8.2-17.734.22-.363.357-.595.8-.595h7.214c.357 0 .488.268.268.672l-11.823 22.706Z" fill="#ff2bc2" data-name="Path 192"/></g><g opacity=".7" data-name="Group 6"><path d="m135.795 43.091 33.672 65.9-56.592-65.9zM203.145 43.091l-33.672 65.9 56.592-65.9z" fill="#ea6c00"/><path d="M135.795 43.091h67.338l-33.666 65.9z" fill="#fdad00"/><path d="m169.465 6.571-31.9 3.372-1.784 33.149zM169.465 6.571l31.894 3.372 1.784 33.149z" fill="#fdd231"/><path d="M226.065 43.091 201.373 9.942l1.784 33.149zM112.875 43.091l24.692-33.149-1.784 33.149z" fill="#fdad00"/><path d="m169.465 6.571-33.672 36.521h67.338z" fill="#feeeb7"/></g></g></svg>