<svg xmlns="http://www.w3.org/2000/svg" width="738" height="316.112"><g data-name="Group 8"><path data-name="Path 193" d="M161.987 176.352a7.059 7.059 0 1 0-14.049.928l-20.28 26.557a9.832 9.832 0 0 0 1.329 10.8l1.591 1.856 7.3-1.46 8.273-7.3-.973-8.272 10.219-16.058-.013-.012a7.053 7.053 0 0 0 6.603-7.039Z" fill="#ffb9b9"/><path data-name="Path 194" d="m21.746 306.184-3.31-12.295 45.846-18.618 4.886 18.146Z" fill="#ffb8b8"/><path data-name="Path 195" d="M10.673 312.529 0 272.887l.5-.135a15.98 15.98 0 0 1 19.584 11.275l6.519 24.212Z" fill="#2f2e41"/><path data-name="Path 196" d="m84.897 304.22-10.3-7.488 23.983-43.281 15.2 11.052Z" fill="#ffb8b8"/><path data-name="Path 197" d="m80.265 316.111-33.2-24.146.305-.42a15.98 15.98 0 0 1 22.321-3.526l20.279 14.747Z" fill="#2f2e41"/><path data-name="Path 198" d="m172.426 243.739-25.912-25.172a13.085 13.085 0 0 0-17.133-.957l-48.926 54.353 4.38 6.812 46.715-31.63 31.63 41.362 30.17-15.085Z" fill="#2f2e41"/><path data-name="Path 199" d="m161.234 249.092-18.978-1.46-13.744-3.331a7.06 7.06 0 1 0-1.339 9.161v.01l8.273 3.406 35.523 12.165 4.38-3.406Z" fill="#ffb9b9"/><path data-name="Path 200" d="m206.976 301.647-10.706 6.813h-12.652l-58.88-21.9-86.135 15.573-2.433-18.492 78.833-34.548 69.1 22.871Z" fill="#2f2e41"/><circle data-name="Ellipse 1" cx="18.978" cy="18.978" r="18.978" transform="translate(165.127 145.442)" fill="#ffb9b9"/><path data-name="Path 201" d="M233.21 240.191a109.038 109.038 0 0 1-5.347 33.725l-1.422 4.372-6.813 31.149-7.3 1.946-5.353-6.813-10.706-7.786-7.787-12.656-6.676-11.124-2.083-3.474-7.3-36.5-27.737-15.572-9.246-1.46 1.947-5.353 8.272-11.192 8.272-.973 2.433-1.946 1.946.973 10.73 4.134 34.788-14.7 5.09.832 17.518 14.6a108.947 108.947 0 0 1 6.774 37.818Z" fill="#ccc"/><path data-name="Path 202" d="m294.223 317.04-18.491 12.165-27.6 24.885-2.083-3.474-5.84-29.2h1.46l15.085-27.737Z" transform="translate(-66.323 -81.087)" opacity=".1" style="isolation:isolate"/><path data-name="Path 203" d="m190.431 209.676-15.085 27.737-8.759 9.733-7.785 1.947 20.929 22.87 29.683-26.764 18.491-12.166Z" fill="#ccc"/><path data-name="Path 204" d="m169.344 150.31-2.056.791a2.871 2.871 0 0 1-.768-3.986l.034-.049-3.8-.178a28.693 28.693 0 0 1 42.835-3.453c.173-.6 2.059.563 2.829 1.739.259-.97 2.027 3.717 2.652 7.03.29-1.1 1.4.678.427 2.386.618-.09.9 1.491.419 2.372.676-.318.562 1.57-.171 2.831.965-.086-.082 19.785-14.56 18.337-1.008-4.631-.724-4.343-1.911-10.3-.552-.586-1.157-1.12-1.761-1.654l-3.267-2.883c-3.8-3.353-7.254-7.491-12.314-8.744-3.478-.861-5.676-1.056-3.781-4.974-1.712.715-3.311 1.777-5.039 2.441.024-.546.266-1.159.232-1.706Z" fill="#2f2e41"/><circle data-name="Ellipse 2" cx="3.406" cy="3.406" r="3.406" transform="translate(190.188 163.204)" fill="#ffb9b9"/><path data-name="Rectangle 430" transform="rotate(-86.19 71.239 32.872)" fill="#e6e6e6" style="isolation:isolate" d="M0 0h15.643v15.643H0z"/><path data-name="Path 205" d="m24.674 94.448 18.954 1.262-1.262 18.954-18.954-1.262Zm18.075 2.031-17.306-1.152-1.152 17.305 17.305 1.152Z" fill="#ccc"/><path data-name="Rectangle 431" transform="matrix(.978 -.21 .21 .978 107.661 43.161)" fill="#e6e6e6" style="isolation:isolate" d="M0 0h15.643v15.643H0z"/><path data-name="Path 206" d="m112.219 32.467 3.991 18.572-18.572 3.991-3.991-18.573Zm3.01 17.938-3.644-16.957-16.961 3.643 3.644 16.957Z" fill="#ccc"/><path data-name="Rectangle 432" transform="rotate(-43.14 204.526 -58.723)" fill="#e6e6e6" style="isolation:isolate" d="M0 0h15.643v15.643H0z"/><path data-name="Path 207" d="m118.398 111.724-13.864 12.986-12.986-13.864 13.864-12.986Zm-13.826 11.818 12.658-11.857-11.856-12.657-12.658 11.857Z" fill="#ccc"/><path data-name="Path 208" d="M697.311 0H234.465a12.74 12.74 0 0 0-12.74 12.74v257.889a12.739 12.739 0 0 0 12.739 12.74h462.847a12.739 12.739 0 0 0 12.739-12.74V12.741A12.74 12.74 0 0 0 697.31.001Z" fill="#3f3d56"/><path data-name="Rectangle 433" fill="#fff" d="M238.806 22.514h454.166V278.71H238.806z"/><circle data-name="Ellipse 3" cx="4.658" cy="4.658" r="4.658" transform="translate(460.842 6.211)" fill="#fff"/><path data-name="Path 209" d="M654.172 287.3H329.89V31.1Z" transform="translate(-91.084 -8.587)" fill="#f2f2f2" style="isolation:isolate"/><circle data-name="Ellipse 4" cx="43.656" cy="43.656" r="43.656" transform="translate(266.213 172.227)" fill="#6c63ff"/><path data-name="Path 210" d="M319.588 248.695a54.3 54.3 0 1 1 54.3-54.3 54.3 54.3 0 0 1-54.3 54.3Zm0-107.9a53.594 53.594 0 1 0 53.594 53.594 53.594 53.594 0 0 0-53.594-53.594Z" fill="#3f3d56"/><path data-name="Rectangle 434" fill="#3f3d56" d="M545.41 155.615h42.424v8.865H545.41z"/><path data-name="Rectangle 435" fill="#3f3d56" d="M505.272 107.59H627.97v3.799H505.272z"/><path data-name="Rectangle 436" fill="#3f3d56" d="M505.272 122.517H627.97v3.799H505.272z"/><path data-name="Rectangle 437" fill="#3f3d56" d="M505.272 137.443H627.97v3.799H505.272z"/><path data-name="Rectangle 438" fill="#6c63ff" d="M643.11 37.846h17.729v17.729H643.11z"/><path data-name="Path 211" d="M669.071 63.808h-21.529V42.279h21.529Zm-20.593-.936h19.656V43.215h-19.656Z" fill="#ccc"/><path data-name="Path 212" d="M722.803 274.052h-44.328v-3.193a.633.633 0 0 0-.633-.633h-15.2a.633.633 0 0 0-.633.633v3.194h-9.5v-3.193a.633.633 0 0 0-.633-.633h-15.2a.633.633 0 0 0-.633.633v3.193h-9.5v-3.193a.633.633 0 0 0-.633-.633h-15.2a.633.633 0 0 0-.633.633v3.193h-9.5v-3.193a.633.633 0 0 0-.633-.633h-15.2a.633.633 0 0 0-.633.633v3.193h-9.5v-3.193a.633.633 0 0 0-.633-.633h-15.2a.633.633 0 0 0-.633.633v3.193h-9.5v-3.193a.633.633 0 0 0-.633-.633h-15.2a.633.633 0 0 0-.633.633v3.193h-9.5v-3.193a.633.633 0 0 0-.633-.633H403.04a.633.633 0 0 0-.633.633v3.193h-9.5v-3.193a.633.633 0 0 0-.633-.633h-15.199a.633.633 0 0 0-.633.633v3.193h-9.5v-3.193a.633.633 0 0 0-.633-.633h-15.2a.633.633 0 0 0-.633.633v3.193h-9.5v-3.193a.633.633 0 0 0-.633-.633h-15.2a.633.633 0 0 0-.633.633v3.193h-9.5v-3.193a.633.633 0 0 0-.633-.633h-15.2a.633.633 0 0 0-.633.633v3.193h-9.5v-3.193a.633.633 0 0 0-.633-.633h-15.2a.633.633 0 0 0-.633.633v3.194h-9.5v-3.193a.633.633 0 0 0-.633-.633h-15.17a.633.633 0 0 0-.633.633v3.193h-29.128a15.2 15.2 0 0 0-15.2 15.2v6.872a15.2 15.2 0 0 0 15.2 15.2h505.289a15.2 15.2 0 0 0 15.2-15.2v-6.872a15.2 15.2 0 0 0-15.2-15.2Z" fill="#3f3d56"/></g></svg>