<svg xmlns="http://www.w3.org/2000/svg" width="344.585" height="61.391"><g data-name="Group 9" stroke="#000" stroke-linecap="round" stroke-linejoin="round" stroke-width="3"><g data-name="Icon feather-coffee"><path data-name="Path 213" d="M48.213 21.937h2.92a11.678 11.678 0 0 1 0 23.356h-2.92" fill="none"/><path data-name="Path 214" d="M1.5 21.937h46.713v26.276a11.678 11.678 0 0 1-11.679 11.678H13.178A11.678 11.678 0 0 1 1.5 48.213Z" fill="#db5545"/><path data-name="Path 215" d="M13.178 1.5v8.759" fill="none"/><path data-name="Path 216" d="M24.856 1.5v8.759" fill="none"/><path data-name="Path 217" d="M36.534 1.5v8.759" fill="none"/></g><g data-name="Icon feather-coffee" fill="none"><path data-name="Path 213" d="M188.351 21.937h2.92a11.678 11.678 0 0 1 0 23.356h-2.92"/><path data-name="Path 214" d="M141.638 21.937h46.713v26.276a11.678 11.678 0 0 1-11.679 11.678h-23.356a11.678 11.678 0 0 1-11.678-11.678Z"/><path data-name="Path 215" d="M153.316 1.5v8.759"/><path data-name="Path 216" d="M164.994 1.5v8.759"/><path data-name="Path 217" d="M176.672 1.5v8.759"/></g><g data-name="Icon feather-coffee" fill="none"><path data-name="Path 213" d="M328.488 21.937h2.92a11.678 11.678 0 0 1 0 23.356h-2.92"/><path data-name="Path 214" d="M281.775 21.937h46.713v26.276a11.678 11.678 0 0 1-11.679 11.678h-23.356a11.678 11.678 0 0 1-11.678-11.678Z"/><path data-name="Path 215" d="M293.453 1.5v8.759"/><path data-name="Path 216" d="M305.131 1.5v8.759"/><path data-name="Path 217" d="M316.809 1.5v8.759"/></g></g></svg>